<?xml version="1.0" encoding="utf-8"?>
<!-- Generator: Adobe Illustrator 18.1.1, SVG Export Plug-In . SVG Version: 6.00 Build 0)  -->
<svg version="1.1" id="Layer_1" xmlns="http://www.w3.org/2000/svg" xmlns:xlink="http://www.w3.org/1999/xlink" x="0px" y="0px"
	 viewBox="0 0 147.4 144.5" enable-background="new 0 0 147.4 144.5" xml:space="preserve">
<g>
	<g>
		<path fill="#FFFFFF" d="M97.4,78c-1.5,0-2.7-0.2-4-1c-3.5,5.8-3.8,10.5-0.2,14.1c4.5,4.5,14.3,4.9,20.2-1
			c7.3-7.3,6.2-24.9-2.4-33.4c-1.4-1.4-3-2.6-4.8-3.4c-6.9-3.2-13.6-0.4-19.5,5.5c-9,9-15.8,25.2-18,38.5c-0.3,2.2-0.2,5.2,0.5,8.5
			c0.5,5,0.8,7.7,0.7,8.2c2.2,5.8,5.3,10.7,9.2,14.6c2.6,2.6,5.6,4.8,9,6.6c11.5,6,28.5,9,37.7,3.7c2-1.1,4.1-2.8,6.1-4.8
			c8.3-8.3,15.6-22.7,11.4-30.1c-0.7-1.3-1.4-2.4-2.3-3.3c-3.7-3.7-9.1-3.5-13.2-0.7c-0.9,0.5-1.6,1.1-2.3,1.8
			c-3.1,3.1-3.3,7-2.5,9.5c0.3-0.3,0.7-0.3,1.2-0.3c1.5,0,3.2,0.7,4.5,2c2.7,2.7,2.7,6.7,0,9.5c-2.7,2.7-6.7,2.7-9.5,0
			c-2.7-2.7-2.7-6.7,0-9.5c0.3-0.3,0.7-0.7,1-1c-0.8-1.7-1-3.5-0.5-5.5c0.7-2.6,2.2-5,4.2-7.1c5.3-5.3,13.3-6.3,19-0.6
			c5.8,5.8,6.1,14.4-0.5,25.9c-2.6,4.8-5.4,8.6-8.3,11.6c-7.2,7.2-15.7,9.3-26.6,7.9c-10.8-1.5-21.9-5.1-30.4-13.5
			c-3.9-3.9-7.2-8.8-9.6-15c-0.2-0.2-1-1.5-1-2c-1.6-9.5-7.3-20.3-14.9-28C38.5,72.4,23.4,70,11,83c-4,4-4.5,13-1.5,20.5
			c1.6,4.5,3.6,8,6,10.4c2.5,2.5,5.4,3.8,8.7,3.8c3.7,0.2,6.9-1.4,9.1-3.7c3.2-3.2,4.6-7.6,3.6-10.1c-2.2,2.2-6.5,2.5-9.2-0.3
			c-2.7-2.7-2.7-6.7,0-9.5s6.7-2.7,9.5,0c1.2,1.2,2,3,2.2,4.7c-0.2,0.8-0.3,1.7-0.5,2.5c1.8,3.2,2,6.8-0.4,10.7
			c-0.8,1.2-1.8,2.5-3.1,3.8c-5.8,5.8-15,7.1-22.1,0c-2.6-2.6-4.9-6.3-6.6-11.3C3.5,95,4.7,85.2,10,79.9c5.3-5.3,11.4-7.9,18.2-8.1
			C36.7,71.5,46.1,76.1,54,84c3.5,3.5,6.7,7.7,9.4,12.4c-0.7-4.7-1.2-10.7-1.5-18c0-1,0-4-0.3-8.7c-0.3-5.2-0.2-8.2-0.2-9.7
			c0-2.5-0.8-14.2-1.5-17.5L58.4,34c-1-3.5-1.7-6.2-2.7-8.2C53.9,21.5,51.4,16,48,12c-5-6.5-16.2-9.7-26.2-9.2
			c-6.4,0.5-11,2.6-14,5.6c-8.2,8.2-5.3,23.1,2,30.3c5.2,5.2,10.5,7.5,15.5,7c2.8-0.3,5.2-1.7,7.1-3.6c3.8-3.8,5.5-9.9,3.9-13.9
			c-0.5-1-0.7-1.7-1.5-2.5c-0.3,1.7-0.8,3.2-2,4.5C30,33,26,33,23.2,30.3c-2.7-2.7-2.7-6.7,0-9.5c2.7-2.7,6.7-2.7,9.5,0
			c0.5,0.5,1,1,1,1.5c1.2,0.5,2.2,1.1,3.1,1.9c0.8,0.8,1.4,1.8,1.9,3.1c1.7,3.7,1.5,8-1.3,12.7c-0.9,1.6-2,3.1-3.2,4.3
			c-6.4,6.4-16.4,6.5-26.5-3.5c-5-5-8-14-7.7-21.7C1,12.5,3.5,8,7.3,5.3c7.5-6,19.7-6.7,30.5-3C42.9,4.1,46.5,6.5,49,9
			c2.7,2.7,4.4,5.7,5.9,8.5c3,5,4.7,8.7,6,16c1.5,7,2,9,2.7,17.7l0.8,8.7c0,3.5,0.3,16.2,0.5,18.5c0.3,7.2,0.5,13,1.3,17.7
			c2.2-13.2,9-30.1,18.6-39.7c6.5-6.5,14.3-9.6,22.9-5.8c2.1,0.9,3.9,2.3,5.5,3.9c9.1,9.1,10.9,27.4,3.2,36.3
			c-6.3,8.1-19,8.5-25.3,2.2c-0.7-0.7-1.4-1.5-1.9-2.4c-2-4.5-1.2-9.7,2.2-15.7c-1.5-2-1.7-5.7,1-8.5s6.7-2.7,9.5,0
			c2.7,2.7,2.7,6.7,0,9.5C100.6,77.2,98.9,77.9,97.4,78L97.4,78z"/>
	</g>
</g>
</svg>
