<?xml version="1.0" encoding="utf-8"?>
<!-- Generator: Adobe Illustrator 18.1.1, SVG Export Plug-In . SVG Version: 6.00 Build 0)  -->
<svg version="1.1" id="Layer_1" xmlns="http://www.w3.org/2000/svg" xmlns:xlink="http://www.w3.org/1999/xlink" x="0px" y="0px"
	 viewBox="0 0 83.2 126.3" enable-background="new 0 0 83.2 126.3" xml:space="preserve">
<g>
	<g>
		<g>
			<path fill="#FFFFFF" d="M59.3,24.7c0.3,0.3,0.4,0.8,0.4,1.2c0,0.9-0.7,1.6-1.6,1.6s-1.6-0.7-1.6-1.6c0-0.4,0.2-0.8,0.5-1.2
				c0.1-0.1,0.3-0.2,0.4-0.3c-0.1-0.6-0.5-1-1-1c-0.4,0-0.9,0.2-1.4,0.8c-0.8,0.8-1.3,2-1.3,3.4c0,1.1,0.3,2.3,0.9,3.7
				c0.4,0.8,1.2,1.2,2.1,1.2c1,0,2.2-0.6,3.1-1.8c0.9-1.3,1.6-3.4,1.6-5.5c0-1.6-0.4-3.3-1.4-4.7l-1.2-1h-0.1
				c-0.2-0.1-0.3-0.3-0.6-0.4c-1.4-0.7-3-1-4.7-1c-3.9,0-8.1,1.7-10.5,4.2c0.2,0.6,0.3,1.3,0.3,2c0,1-0.2,2.1-0.5,3.4
				c-0.2,0.6-0.3,1.1-0.6,1.6l0.2,0.3c1,1.2,2.1,1.7,3,1.7c0.5,0,1.1-0.1,1.6-0.4c1-0.5,1.6-1.3,1.6-2.2c0-0.3-0.1-0.6-0.2-1
				c-0.2-0.3-0.4-0.6-0.7-0.8c-0.1,0.2-0.2,0.3-0.3,0.4c-0.3,0.3-0.7,0.5-1.1,0.5c-0.9,0-1.6-0.7-1.6-1.6c0-0.9,0.7-1.6,1.6-1.6
				c0.9,0,1.6,0.8,1.6,1.5c0.8,0.6,1.4,1.5,1.4,2.5c0,0.3-0.1,0.7-0.2,1.1c-0.6,1.3-1.9,2.2-3.7,2.2c-0.3,0-0.6,0-0.9-0.1
				c-0.8-0.1-1.5-0.8-2.4-1.8c-0.9,1.4-2.2,2.1-3.4,2.1c-0.6,0-1.1-0.2-1.6-0.5c-0.9-0.6-1.4-1.7-1.4-2.8c0-0.6,0.2-1.3,0.5-1.8
				c0.3-0.4,0.6-0.7,1-0.8c0-0.1,0-0.3,0-0.3c0-0.9,0.7-1.6,1.6-1.6c0.9,0,1.6,0.7,1.6,1.6s-0.7,1.6-1.6,1.6c-0.4,0-0.8-0.2-1.1-0.4
				c-0.1-0.1-0.2-0.2-0.2-0.3c-0.6,0.3-1.2,1-1.2,2c0,0.2,0,0.4,0.1,0.7c0.2,1.2,1.1,2.1,2.3,2.1c0.3,0,0.6-0.1,0.9-0.2
				c0.8-0.3,1.4-0.8,2-1.9c-0.6-1-1-2-1-3c0-1.3,0.6-2.7,1.7-4.1l0.1-0.1c-1-2.3-4.1-4.6-6.9-5.3c-0.9-0.3-1.7-0.4-2.6-0.4
				c-1.3,0-2.6,0.3-4,0.9c-0.1,0.1-0.6,0.5-1.5,1.3c-0.7,0.4-1.2,0.9-1.5,1.3c-1.9,2.6-3.4,6.4-3.4,9.4c0,2,0.7,3.6,2.4,4.2
				c0.4,0.2,0.9,0.2,1.4,0.2c2.9,0,6-2.7,6-5.2c0-2-1.7-3.5-3.2-3.5c-1.2,0-1.9,0.8-2.3,2.4c0.7,0.3,1.3,0.7,1.3,1.6
				s-0.7,1.6-1.6,1.6c-0.9,0-1.6-0.7-1.6-1.6s0.7-1.5,1.3-1.6c0.4-1.6,1.2-2.6,2.3-3c0.2-0.1,0.5-0.1,0.7-0.1c2.1,0,4.2,2.2,3.9,4.6
				c-0.2,2.8-3.6,5.5-6.6,5.5c-0.5,0-1.1-0.1-1.6-0.3c-2.1-0.8-2.9-2.6-2.9-4.8c0-3.2,1.7-7.2,3.5-9.7c-0.9,0.7-1.9,1.6-3.2,2.8
				c-0.4,0.3-2.6,2.4-3.2,3l-1.6,1.3c-1.6,1.3-2,1.6-3.4,2.5c-1.4,1-2.3,1.3-3.7,1.7c-0.7,0.2-1.5,0.4-2.4,0.4c-0.9,0-1.8-0.2-3-0.8
				c-2.4-1.2-4.3-3.3-4.6-5.6c-0.2-1.1,0.2-2.3,1.1-3.5c1.3-1.3,3.3-2.3,4.9-2.3c3.4,0,5,1.7,5,3.8c0,0.4-0.1,0.8-0.2,1.3
				c-0.3,1.3-1,2-1.9,2.3c-0.3,0.1-0.6,0.2-0.8,0.2c-0.3,0-0.5-0.1-0.8-0.2c-0.1,0.1-0.3,0.1-0.4,0.1c-0.9,0-1.6-0.7-1.6-1.6
				s0.7-1.6,1.6-1.6s1.6,0.7,1.6,1.6c0,0.4-0.2,0.8-0.4,1.1c0.3,0,0.4-0.1,0.7-0.2c1-0.4,1.7-1.7,1.7-3c0-0.6-0.2-1.3-0.6-1.8
				c-0.8-0.9-2-1.4-3.8-1.4c-2.4,0-5.4,2-5.4,4.7c0,1,0.4,2.1,1.4,3.3c1.6,1.8,4,3.1,5.9,2.8c1.3-0.1,2.6-0.6,3.6-1
				c0.5-0.2,1.1-0.5,1.8-0.9l1.7-1.2c0.7-0.4,2.8-2.3,3.2-2.7c0.3-0.3,0.8-0.8,1.7-1.6c0.8-0.8,1.3-1.3,1.5-1.4
				c1.3-1.2,2.3-2.1,3.3-2.8c-1.2,0.3-2.5,0.5-3.7,0.5c-2.6,0-5-0.8-6.4-2.3c-1.1-1.2-1.7-2.6-1.7-4.4c0-1.8,1.5-3.6,3.6-4.7
				c1.1-0.5,2.1-0.8,3-0.8c2.4,0,3.7,1.8,3.7,3.7c0,0.4,0,0.8-0.1,1.2c-0.3,1.1-0.9,1.6-1.7,1.9c-0.1,0.2-0.3,0.3-0.3,0.5
				c-0.3,0.3-0.8,0.4-1.2,0.4c-0.9,0-1.6-0.7-1.6-1.6s0.7-1.6,1.6-1.6c0.9,0,1.6,0.8,1.6,1.5c0.6-0.2,1.1-1.2,1.1-2.3
				c0-0.8-0.3-1.6-0.9-2.1c-0.6-0.6-1.3-0.8-2.1-0.8c-0.8,0-1.7,0.3-2.8,0.7c-1.8,0.8-3.2,2.3-3.2,3.7c-0.1,4.2,2.8,6.4,7.3,6.4
				c2.6,0,5.3-0.9,7.2-2.2c0.1-0.1,0.4-0.2,0.5-0.2c1.5-0.6,2.9-0.9,4.1-0.9c2.7,0,5,1.2,6.9,2.5c1.4,1,2.4,2.1,3,3.3
				c2.6-2.6,6.7-4.1,10.7-4.1c1.6,0,3.1,0.3,4.5,0.8c0.1,0,0.2,0,0.3,0.1l0.4,0.2l0.1,0.1h0.3c0.3,0.3,0.7,0.5,0.9,0.8
				c1.6,0.8,3.1,1.1,4.4,1.1c1.7,0,3.2-0.6,4.5-1.7c1.4-1.2,2.1-2.6,2.1-4.1c0-1-0.4-2-1.2-2.8c-1.3-1.3-3.5-2-5.5-2
				c-0.4,0-0.8,0-1.2,0.1c-1.2,0.2-1.9,0.8-1.9,1.6c0,0.6,0.3,1.2,1,2c0.2-0.1,0.3-0.1,0.6-0.1c0.9,0,1.6,0.7,1.6,1.6
				s-0.7,1.6-1.6,1.6c-0.9,0-1.6-0.7-1.6-1.6c0-0.4,0.2-0.8,0.4-1.1c-0.7-0.9-1-1.8-1-2.5c0-1.4,1.3-2.3,3.7-2.3
				c2.1,0,4.5,0.8,6,2.2c0.9,1,1.3,2.2,1.3,3.3c0,1.6-0.8,3.3-2.3,4.5c-1.4,1.2-3.1,1.8-4.9,1.8c-1,0-2.1-0.2-3.3-0.6
				c0.6,0.6,1.5,1.4,2.6,2.7c3.5,3.9,7.1,8.6,11.8,8.6c1.2,0,2.5-0.3,4-1.1c2.3-1.3,3.3-3,3.3-4.7c0-1.4-0.7-2.9-1.9-4.1
				c-1.3-1.3-2.6-1.8-3.6-1.8c-1.1,0-2,0.6-2.5,1.6c0.4,0.1,1.1,0.6,1.1,1.5c0,0.9-0.7,1.6-1.6,1.6c-0.9,0-1.6-0.7-1.6-1.6
				c0-0.9,0.7-1.5,1.3-1.6c0.6-1.4,1.7-2.1,3.1-2.1c1.3,0,2.7,0.6,4.1,1.9c1.4,1.3,2.2,3,2.2,4.6c0,1.9-1.1,3.8-3.6,5.2
				c-1.3,0.7-2.6,1.1-3.9,1.1c-2.5,0-5.1-1.2-7.9-3.7c-0.9-0.9-2.5-2.6-4.8-5l-1.6-1.7c0.4,1.1,0.6,2.3,0.6,3.5
				c0,2.1-0.6,4.2-1.7,5.7c-1,1.4-2.4,2.1-3.7,2.1c-1.1,0-2.1-0.5-2.6-1.6c-0.6-1.5-0.9-2.9-0.9-4c0-1.6,0.5-2.9,1.5-3.9
				c0.7-0.7,1.4-1.1,2-1.1c0.8,0,1.4,0.6,1.5,1.6c0.1,0,0.1,0,0.1,0C58.5,24.3,59,24.5,59.3,24.7L59.3,24.7z M38.8,15.9
				c-0.1-1.9-1.4-2.8-4.7-4.8c-1.8-1.1-2.8-1.8-3.5-3.3c-0.3-0.6-0.4-1.2-0.4-1.9c0-0.1,0-0.3,0-0.4c-0.7-0.1-1.3-0.7-1.3-1.6
				s0.7-1.6,1.6-1.6c0.9,0,1.6,0.7,1.6,1.6S31.4,5.3,31,5.3c0,0.2-0.1,0.5-0.1,0.7c0,1.7,1.2,2.9,3.6,4.4c3.3,2.1,4.8,3.1,5,5.4
				c0,0.3-0.1,0.3-0.3,0.3C38.9,16.2,38.8,16.1,38.8,15.9L38.8,15.9z M41.7,16.8c0-0.2,0.1-0.5,0.1-0.8c0-1.6-0.9-3.7-2.7-6.2
				c-0.1-0.1-0.3-0.4-0.7-0.9l-0.7-1.1l-0.6-0.9c-0.3-0.4-0.5-0.8-0.6-1l-0.4-1c-0.2-0.3-0.3-0.7-0.3-1c0-0.1,0-0.1,0-0.2
				c-0.2-0.1-0.3-0.3-0.4-0.3c-0.3-0.3-0.4-0.7-0.4-1.1c0-0.9,0.7-1.6,1.6-1.6s1.6,0.7,1.6,1.6s-0.7,1.6-1.6,1.6c0,0,0,0-0.1,0
				c0.1,0.4,0.2,0.8,0.5,1.3L37.5,6c0.3,0.3,0.9,1.3,1.1,1.6c0.2,0.3,0.9,1.5,1.2,1.8c1.8,2.7,2.7,5,2.7,6.8c0,0.3,0,0.5-0.1,0.8
				C42.3,17.4,41.7,17.2,41.7,16.8C41.7,16.8,41.7,16.8,41.7,16.8L41.7,16.8z M42.3,23.1c-0.8,1.1-1.3,2.3-1.3,3.4
				c0,0.8,0.2,1.5,0.6,2.3c0.2-0.3,0.3-0.7,0.3-1.1c0.3-1.1,0.5-2.1,0.5-3.1C42.5,24,42.4,23.5,42.3,23.1L42.3,23.1z M42.5,16.6
				c0-2.7,0.9-5.4,2.7-8.2c0.1-0.1,0.2-0.4,0.5-0.8l0.5-0.9L46.7,6c0.4-0.8,0.5-1,0.8-1.7c0.1-0.3,0.2-0.6,0.3-0.8
				c0-0.2,0-0.3,0-0.4c-0.4-0.1-1.1-0.6-1.1-1.5c0-0.9,0.7-1.6,1.6-1.6c0.9,0,1.6,0.7,1.6,1.6c0,0.9-0.7,1.5-1.4,1.6
				c-0.1,0.3-0.1,0.4-0.2,0.7c-0.1,0.8-0.2,1.1-0.7,2L47,6.8c-0.1,0.3-1.3,2-1.3,2c-1.7,2.7-2.5,5.3-2.5,7.9c0,0.3-0.1,0.3-0.3,0.3
				C42.6,17,42.5,16.9,42.5,16.6z M44.4,16.5l0.3-0.8c0.1-0.3,0.2-0.6,0.4-0.8l0.4-0.8c0.1-0.2,0.3-0.4,0.5-0.7s0.4-0.4,0.5-0.6
				c0.1-0.1,0.3-0.3,0.7-0.6c0.3-0.3,0.5-0.5,0.6-0.6s0.3-0.3,0.6-0.5c0.3-0.3,0.5-0.4,0.6-0.5c2.1-1.9,3.3-3.4,3.6-5.5
				c-0.4-0.3-1-0.6-1-1.5c0-0.9,0.7-1.6,1.6-1.6s1.6,0.7,1.6,1.6c0,0.9-0.7,1.6-1.6,1.6c-0.3,2.4-1.5,3.9-3.8,5.9
				c-0.1,0.1-1,1-1.2,1.1s-0.9,0.8-1.1,1.1c-0.1,0.1-0.2,0.3-0.5,0.5c-0.3,0.3-0.4,0.5-0.5,0.7c-0.1,0.2-0.2,0.3-0.4,0.6
				c-0.3,0.5-0.6,1-0.7,1.6C45,17,44.4,16.9,44.4,16.5C44.4,16.5,44.4,16.5,44.4,16.5L44.4,16.5z"/>
		</g>
	</g>
	<g>
		<g>
			<path fill="#FFFFFF" d="M23.9,102.3c-0.3-0.3-0.4-0.8-0.4-1.2c0-0.9,0.7-1.6,1.6-1.6s1.6,0.7,1.6,1.6c0,0.4-0.2,0.8-0.5,1.2
				c-0.1,0.1-0.3,0.2-0.4,0.3c0.1,0.6,0.5,1,1,1c0.4,0,0.9-0.2,1.4-0.8c0.8-0.8,1.3-2,1.3-3.4c0-1.1-0.3-2.3-0.9-3.7
				c-0.4-0.8-1.2-1.2-2.1-1.2c-1,0-2.2,0.6-3.1,1.8c-0.9,1.3-1.6,3.4-1.6,5.5c0,1.6,0.4,3.3,1.4,4.7l1.2,1h0.1
				c0.2,0.1,0.3,0.3,0.6,0.4c1.4,0.7,3,1,4.7,1c3.9,0,8.1-1.7,10.5-4.2c-0.2-0.6-0.3-1.3-0.3-2c0-1,0.2-2.1,0.5-3.4
				c0.2-0.6,0.3-1.1,0.6-1.6L41,97.3c-1-1.2-2.1-1.7-3-1.7c-0.5,0-1.1,0.1-1.6,0.4c-1,0.5-1.6,1.3-1.6,2.2c0,0.3,0.1,0.6,0.2,1
				c0.2,0.3,0.4,0.6,0.7,0.8c0.1-0.2,0.2-0.3,0.3-0.4c0.3-0.3,0.7-0.5,1.1-0.5c0.9,0,1.6,0.7,1.6,1.6c0,0.9-0.7,1.6-1.6,1.6
				c-0.9,0-1.6-0.8-1.6-1.5c-0.8-0.6-1.4-1.5-1.4-2.5c0-0.3,0.1-0.7,0.2-1.1c0.6-1.3,1.9-2.2,3.7-2.2c0.3,0,0.6,0,0.9,0.1
				c0.8,0.1,1.5,0.8,2.4,1.8c0.9-1.4,2.2-2.1,3.4-2.1c0.6,0,1.1,0.2,1.6,0.5c0.9,0.6,1.4,1.7,1.4,2.8c0,0.6-0.2,1.3-0.5,1.8
				c-0.3,0.4-0.6,0.7-1,0.8c0,0.1,0,0.3,0,0.3c0,0.9-0.7,1.6-1.6,1.6c-0.9,0-1.6-0.7-1.6-1.6s0.7-1.6,1.6-1.6c0.4,0,0.8,0.2,1.1,0.4
				c0.1,0.1,0.2,0.2,0.2,0.3c0.6-0.3,1.2-1,1.2-2c0-0.2,0-0.4-0.1-0.7c-0.2-1.2-1.1-2.1-2.3-2.1c-0.3,0-0.6,0.1-0.9,0.2
				c-0.8,0.3-1.4,0.8-2,1.9c0.6,1,1,2,1,3c0,1.3-0.6,2.7-1.7,4.1l-0.1,0.1c1,2.3,4.1,4.6,6.9,5.3c0.9,0.3,1.7,0.4,2.6,0.4
				c1.3,0,2.6-0.3,4-0.9c0.1-0.1,0.6-0.5,1.5-1.3c0.7-0.4,1.2-0.9,1.5-1.3c1.9-2.6,3.4-6.4,3.4-9.4c0-2-0.7-3.6-2.4-4.2
				c-0.4-0.2-0.9-0.2-1.4-0.2c-2.9,0-6,2.7-6,5.2c0,2,1.7,3.5,3.2,3.5c1.2,0,1.9-0.8,2.3-2.4c-0.7-0.3-1.3-0.7-1.3-1.6
				s0.7-1.6,1.6-1.6c0.9,0,1.6,0.7,1.6,1.6s-0.7,1.5-1.3,1.6c-0.4,1.6-1.2,2.6-2.3,3c-0.2,0.1-0.5,0.1-0.7,0.1
				c-2.1,0-4.2-2.2-3.9-4.6c0.2-2.8,3.6-5.5,6.6-5.5c0.5,0,1.1,0.1,1.6,0.3c2.1,0.8,2.9,2.6,2.9,4.8c0,3.2-1.7,7.2-3.5,9.7
				c0.9-0.7,1.9-1.6,3.2-2.8c0.4-0.3,2.6-2.4,3.2-3l1.6-1.3c1.6-1.3,2-1.6,3.4-2.5c1.4-1,2.3-1.3,3.7-1.7c0.7-0.2,1.5-0.4,2.4-0.4
				c0.9,0,1.8,0.2,3,0.8c2.4,1.2,4.3,3.3,4.6,5.6c0.2,1.1-0.2,2.3-1.1,3.5c-1.3,1.3-3.3,2.3-4.9,2.3c-3.4,0-5-1.7-5-3.8
				c0-0.4,0.1-0.8,0.2-1.3c0.3-1.3,1-2,1.9-2.3c0.3-0.1,0.6-0.2,0.8-0.2s0.5,0.1,0.8,0.2c0.1-0.1,0.3-0.1,0.4-0.1
				c0.9,0,1.6,0.7,1.6,1.6s-0.7,1.6-1.6,1.6s-1.6-0.7-1.6-1.6c0-0.4,0.2-0.8,0.4-1.1c-0.3,0-0.4,0.1-0.7,0.2c-1,0.4-1.7,1.7-1.7,3
				c0,0.6,0.2,1.3,0.6,1.8c0.8,0.9,2,1.4,3.8,1.4c2.4,0,5.4-2,5.4-4.7c0-1-0.4-2.1-1.4-3.3c-1.6-1.8-4-3.1-5.9-2.8
				c-1.3,0.1-2.6,0.6-3.6,1c-0.5,0.2-1.1,0.5-1.8,0.9l-1.7,1.2c-0.7,0.4-2.8,2.3-3.2,2.7c-0.3,0.3-0.8,0.8-1.7,1.6
				c-0.8,0.8-1.3,1.3-1.5,1.4c-1.3,1.2-2.3,2.1-3.3,2.8c1.2-0.3,2.5-0.5,3.7-0.5c2.6,0,5,0.8,6.4,2.3c1.1,1.2,1.7,2.6,1.7,4.4
				c0,1.8-1.5,3.6-3.6,4.7c-1.1,0.5-2.1,0.8-3,0.8c-2.4,0-3.7-1.8-3.7-3.7c0-0.4,0-0.8,0.1-1.2c0.3-1.1,0.9-1.6,1.7-1.9
				c0.1-0.2,0.3-0.3,0.3-0.5c0.3-0.3,0.8-0.4,1.2-0.4c0.9,0,1.6,0.7,1.6,1.6s-0.7,1.6-1.6,1.6c-0.9,0-1.6-0.8-1.6-1.5
				c-0.6,0.2-1.1,1.2-1.1,2.3c0,0.8,0.3,1.6,0.9,2.1c0.6,0.6,1.3,0.8,2.1,0.8c0.8,0,1.7-0.3,2.8-0.7c1.8-0.8,3.2-2.3,3.2-3.7
				c0.1-4.2-2.8-6.4-7.3-6.4c-2.6,0-5.3,0.9-7.2,2.2c-0.1,0.1-0.4,0.2-0.5,0.2c-1.5,0.6-2.9,0.9-4.1,0.9c-2.7,0-5-1.2-6.9-2.5
				c-1.4-1-2.4-2.1-3-3.3c-2.6,2.6-6.7,4.1-10.7,4.1c-1.6,0-3.1-0.3-4.5-0.8c-0.1,0-0.2,0-0.3-0.1l-0.4-0.2l-0.1-0.1h-0.3
				c-0.3-0.3-0.7-0.5-0.9-0.8c-1.6-0.8-3.1-1.1-4.4-1.1c-1.7,0-3.2,0.6-4.5,1.7c-1.4,1.2-2.1,2.6-2.1,4.1c0,1,0.4,2,1.2,2.8
				c1.3,1.3,3.5,2,5.5,2c0.4,0,0.8,0,1.2-0.1c1.2-0.2,1.9-0.8,1.9-1.6c0-0.6-0.3-1.2-1-2c-0.2,0.1-0.3,0.1-0.6,0.1
				c-0.9,0-1.6-0.7-1.6-1.6s0.7-1.6,1.6-1.6c0.9,0,1.6,0.7,1.6,1.6c0,0.4-0.2,0.8-0.4,1.1c0.7,0.9,1,1.8,1,2.5
				c0,1.4-1.3,2.3-3.7,2.3c-2.1,0-4.5-0.8-6-2.2c-0.9-1-1.3-2.2-1.3-3.3c0-1.6,0.8-3.3,2.3-4.5c1.4-1.2,3.1-1.8,4.9-1.8
				c1,0,2.1,0.2,3.3,0.6c-0.6-0.6-1.5-1.4-2.6-2.7c-3.5-3.9-7.1-8.6-11.8-8.6c-1.2,0-2.5,0.3-4,1.1c-2.3,1.3-3.3,3-3.3,4.7
				c0,1.4,0.7,2.9,1.9,4.1c1.3,1.3,2.6,1.8,3.6,1.8c1.1,0,2-0.6,2.5-1.6c-0.4-0.1-1.1-0.6-1.1-1.5c0-0.9,0.7-1.6,1.6-1.6
				c0.9,0,1.6,0.7,1.6,1.6c0,0.9-0.7,1.5-1.3,1.6c-0.6,1.4-1.7,2.1-3.1,2.1c-1.3,0-2.7-0.6-4.1-1.9c-1.4-1.3-2.2-3-2.2-4.6
				c0-1.9,1.1-3.8,3.6-5.2c1.3-0.7,2.6-1.1,3.9-1.1c2.5,0,5.1,1.2,7.9,3.7c0.9,0.9,2.5,2.6,4.8,5l1.6,1.7c-0.4-1.1-0.6-2.3-0.6-3.5
				c0-2.1,0.6-4.2,1.7-5.7c1-1.4,2.4-2.1,3.7-2.1c1.1,0,2.1,0.5,2.6,1.6c0.6,1.5,0.9,2.9,0.9,4c0,1.6-0.5,2.9-1.5,3.9
				c-0.7,0.7-1.4,1.1-2,1.1c-0.8,0-1.4-0.6-1.5-1.6c-0.1,0-0.1,0-0.1,0C24.7,102.7,24.3,102.5,23.9,102.3L23.9,102.3z M38.8,110.5
				l-0.3,0.8c-0.1,0.3-0.2,0.6-0.4,0.8l-0.4,0.8c-0.1,0.2-0.3,0.4-0.5,0.7s-0.4,0.4-0.5,0.6c-0.1,0.1-0.3,0.3-0.7,0.6
				c-0.3,0.3-0.5,0.5-0.6,0.6s-0.3,0.3-0.6,0.5c-0.3,0.3-0.5,0.4-0.6,0.5c-2.1,1.9-3.3,3.4-3.6,5.5c0.4,0.3,1,0.6,1,1.5
				c0,0.9-0.7,1.6-1.6,1.6s-1.6-0.7-1.6-1.6c0-0.9,0.7-1.6,1.6-1.6c0.3-2.4,1.5-3.9,3.8-5.9c0.1-0.1,1-1,1.2-1.1s0.9-0.8,1.1-1.1
				c0.1-0.1,0.2-0.3,0.5-0.5c0.3-0.3,0.4-0.5,0.5-0.7c0.1-0.2,0.2-0.3,0.4-0.6c0.3-0.5,0.6-1,0.7-1.6
				C38.2,110,38.8,110.1,38.8,110.5C38.8,110.5,38.8,110.5,38.8,110.5L38.8,110.5z M40.7,110.4c0,2.7-0.9,5.4-2.7,8.2
				c-0.1,0.1-0.2,0.4-0.5,0.8l-0.5,0.9l-0.5,0.7c-0.4,0.8-0.5,1-0.8,1.7c-0.1,0.3-0.2,0.6-0.3,0.8c0,0.2,0,0.3,0,0.4
				c0.4,0.1,1.1,0.6,1.1,1.5c0,0.9-0.7,1.6-1.6,1.6c-0.9,0-1.6-0.7-1.6-1.6c0-0.9,0.7-1.5,1.4-1.6c0.1-0.3,0.1-0.4,0.2-0.7
				c0.1-0.8,0.2-1.1,0.7-2l0.5-0.9c0.1-0.3,1.3-2,1.3-2c1.7-2.7,2.5-5.3,2.5-7.9c0-0.3,0.1-0.3,0.3-0.3
				C40.7,110,40.7,110.1,40.7,110.4z M41.5,110.2c0,0.2-0.1,0.5-0.1,0.8c0,1.6,0.9,3.7,2.7,6.2c0.1,0.1,0.3,0.4,0.7,0.9l0.7,1.1
				l0.6,0.9c0.3,0.4,0.5,0.8,0.6,1l0.4,1c0.2,0.3,0.3,0.7,0.3,1c0,0.1,0,0.1,0,0.2c0.2,0.1,0.3,0.3,0.4,0.3c0.3,0.3,0.4,0.7,0.4,1.1
				c0,0.9-0.7,1.6-1.6,1.6s-1.6-0.7-1.6-1.6s0.7-1.6,1.6-1.6c0,0,0,0,0.1,0c-0.1-0.4-0.2-0.8-0.5-1.3l-0.4-0.8
				c-0.3-0.3-0.9-1.3-1.1-1.6c-0.2-0.3-0.9-1.5-1.2-1.8c-1.8-2.7-2.7-5-2.7-6.8c0-0.3,0-0.5,0.1-0.8
				C40.9,109.6,41.5,109.8,41.5,110.2C41.5,110.2,41.5,110.2,41.5,110.2L41.5,110.2z M40.9,103.9c0.8-1.1,1.3-2.3,1.3-3.4
				c0-0.8-0.2-1.5-0.6-2.3c-0.2,0.3-0.3,0.7-0.3,1.1c-0.3,1.1-0.5,2.1-0.5,3.1C40.8,103,40.8,103.5,40.9,103.9L40.9,103.9z
				 M44.4,111.1c0.1,1.9,1.4,2.8,4.7,4.8c1.8,1.1,2.8,1.8,3.5,3.3c0.3,0.6,0.4,1.2,0.4,1.9c0,0.1,0,0.3,0,0.4
				c0.7,0.1,1.3,0.7,1.3,1.6s-0.7,1.6-1.6,1.6c-0.9,0-1.6-0.7-1.6-1.6s0.7-1.4,1.1-1.5c0-0.2,0.1-0.5,0.1-0.7c0-1.7-1.2-2.9-3.6-4.4
				c-3.3-2.1-4.8-3.1-5-5.4c0-0.3,0.1-0.3,0.3-0.3C44.3,110.8,44.4,110.9,44.4,111.1L44.4,111.1z"/>
		</g>
	</g>
	<g>
		<g>
			<path fill="#FFFFFF" d="M49.1,70.2V70c0.1-0.5,0.4-1.1,0.8-2.2c0.8-1.8,1-2.7,1-3.7c-1,0-1.8-0.8-1.8-1.8s0.8-1.8,1.8-1.8
				s1.8,0.8,1.8,1.8c0,0.5-0.2,1-0.5,1.3c-0.2,0.1-0.4,0.2-0.5,0.3c-0.1,1.2-0.5,2.3-1.1,4.2l-0.5,1.1c1.7-1.6,3.1-3.1,4.4-4.8
				c2.7-3.5,4.1-6.6,4.1-9.4c0-1.1-0.2-2.2-0.7-3.2c-1.1-2.7-3.9-4.1-6.7-4.1c-4,0-6.9,2.4-6.4,6.6c0.2,1.6,1.5,2.3,2.9,2.3
				c0.9,0,1.9-0.3,2.4-0.8c-0.1-0.1-0.3-0.2-0.4-0.4c-0.4-0.3-0.6-0.8-0.6-1.2c0-1,0.8-1.8,1.8-1.8c1,0,1.8,0.8,1.8,1.8
				c0,1-0.8,1.8-1.8,1.8c-0.3,0.4-0.6,0.7-1,0.9c-0.7,0.4-1.5,0.5-2.2,0.5c-0.9,0-1.7-0.3-2.5-0.8c-0.8-0.6-1.2-1.7-1.2-3
				c0-4.1,3.1-6.5,7.2-6.5c3.1,0,6.2,1.5,7.5,4.5c0.6,1.2,0.8,2.5,0.8,3.7c0,6.4-6.5,12.9-10.9,16.5c0.8-0.1,2.9-0.2,6.3-0.2
				c2.6,0.1,4.5-0.3,5.9-1.1c-0.1-0.3-0.2-0.5-0.2-0.8c0-1,0.8-1.8,1.8-1.8s1.8,0.8,1.8,1.8s-0.8,1.8-1.8,1.8
				c-0.5,0-0.9-0.2-1.2-0.5c-1.4,1-3.5,1.4-6.3,1.3h-3.3c-0.9,0-2.1,0-3.1,0.2c-0.5,0.1-1,0.3-1.4,0.4c-1.8,1.4-2.6,1.8-4.2,2.6v0.1
				c1.4,0.7,2.3,1.2,2.7,1.9c0.1,0.3,0.1,0.6,0.1,0.9V79c0,0.3-0.1,0.4-0.4,0.4c-0.3,0-0.4-0.1-0.4-0.4v-0.8c0-0.2,0-0.4-0.1-0.5
				c-0.1-0.5-1-1-2.2-1.6l-0.7-0.4L41.5,76c-1.3,0.6-2.2,1-2.5,1.5c-0.1,0.1-0.1,0.3,0,0.5v0.8c0,0.3-0.1,0.4-0.4,0.4
				c-0.3,0-0.4-0.1-0.4-0.4V78c-0.1-0.3,0-0.6,0.2-0.9c0.3-0.6,1.1-1.1,2.6-1.7l-0.1-0.1c-1.2-0.5-1.8-1-2.9-1.7
				c-1.5-0.5-3.7-0.7-6.4-1l-3.1-0.3c-2.2-0.3-3.9-0.8-5.1-1.2c-0.9-0.3-1.4-0.7-1.9-1.1c-0.3,0.1-0.6,0.2-0.9,0.2
				c-1,0-1.8-0.8-1.8-1.8s0.8-1.8,1.8-1.8c1,0,1.8,0.8,1.8,1.8c0,0.5-0.1,0.8-0.4,1c0.4,0.4,1,0.8,1.6,1c1,0.5,2.7,0.9,4.9,1.1
				l3.1,0.3c1.3,0.1,2.2,0.2,2.5,0.3c0.9,0.1,1.6,0.2,2.3,0.3c-6.8-5.3-10.2-11.3-10.2-18.1c0-3.7,1.4-5.5,3.9-6.7
				c1.1-0.5,2.3-0.7,3.4-0.7c2.2,0,4.3,0.9,5.7,2.6c1,1.3,1.5,3,1.3,5c-0.1,1.9-1.5,3-3.3,3.1c-0.9,0-1.6-0.2-2.3-0.6
				c-0.4-0.3-0.7-0.6-1-0.9c-1,0-1.8-0.8-1.8-1.8c0-1,0.8-1.8,1.8-1.8s1.8,0.8,1.8,1.8c0,0.5-0.2,1-0.5,1.3
				c-0.2,0.1-0.4,0.2-0.6,0.3c0.5,0.5,1.4,0.8,2.3,0.8c1.3,0,2.6-0.6,2.8-2.3c0.4-4.1-2.6-6.7-6.4-6.7c-2.6,0-5,1.4-6.2,4
				c-0.3,0.5-0.4,1.2-0.4,2.1c0,0.9,0.1,1.9,0.3,3.2c0.7,4.4,3,8.6,7.1,12.6c-0.4-0.9-0.7-2-0.7-3.1c0-0.9,0.1-1.8,0.4-2.8
				C34,63.6,34,63.6,34,63.6c-0.4-0.4-0.6-0.9-0.6-1.3c0-1,0.8-1.8,1.8-1.8c1,0,1.8,0.8,1.8,1.8s-0.8,1.8-1.8,1.8
				c-0.1,0-0.3,0-0.4,0c-0.2,0.8-0.3,1.6-0.3,2.4c0,1.5,0.4,2.8,1.1,3.9c0.1,0.1,0.1,0.3,0,0.4c0.9,0.8,1.8,1.5,2.9,2.2
				c0.1,0.1,0.2,0.1,0.3,0.1c0.1,0.1,0.1,0.2,0.2,0.3l1.1,0.8c0.2,0.1,0.6,0.3,1.1,0.6l0.7,0.3c1.2-0.5,2-0.9,2.3-1l1.8-1.2
				c0-0.2,0.1-0.3,0.2-0.4c0.2-0.1,0.4-0.1,0.5-0.2L49.1,70.2z M43,77.4c0.3,0.4,0.5,0.9,0.5,1.3c0,1-0.8,1.8-1.8,1.8
				c-1,0-1.8-0.8-1.8-1.8c0-1,0.8-1.8,1.8-1.8C42.2,76.9,42.7,77.1,43,77.4z"/>
		</g>
	</g>
</g>
</svg>
