<?xml version="1.0" encoding="utf-8"?>
<!-- Generator: Adobe Illustrator 18.1.1, SVG Export Plug-In . SVG Version: 6.00 Build 0)  -->
<svg version="1.1" id="Layer_1" xmlns="http://www.w3.org/2000/svg" xmlns:xlink="http://www.w3.org/1999/xlink" x="0px" y="0px"
	 viewBox="0 0 80.4 17.4" enable-background="new 0 0 80.4 17.4" xml:space="preserve">
<g>
	<g>
		<path fill="#FFFFFF" d="M33.2,7.9c0.2,0,0.3,0.1,0.3,0.3c0,0.2-0.1,0.3-0.3,0.3c-1.7,0-3.6,0-5.8-0.1l0.2,0.4
			c0.1,0.4,0.1,0.8,0.1,1.2c0,3.8-2.6,7.5-6,7.4c-0.3,0-0.6,0-0.9-0.1c-0.2,0.1-0.3,0-0.4-0.2c-0.3-0.1-0.2-0.6,0.2-0.5
			c0.4-0.3,0.7-0.8,0.9-1.1c0.2-0.3,0.6-1.1,0.7-1.3c0-0.2,0.5-1.3,0.5-1.4c0.7-1.8,1.7-3.4,3.1-4.6l-8-0.2c-1.2,0-2.4-0.1-3.5-0.1
			c-1.1,0-2.1,0-3.1,0.1c0.1,0.2,0.1,0.3-0.1,0.4l-2.1,1.6c-0.5,0.4-1,0.8-1.4,1.1C7.9,11.4,8,11.7,8,12c0,0.7-0.7,1.4-1.4,1.4
			S5.3,12.7,5.3,12c0-0.7,0.7-1.4,1.4-1.4c0.2,0,0.4,0.1,0.5,0.2c0.5-0.4,1-0.8,1.5-1.2l2-1.5C7.9,8.2,5.2,8.3,2.7,8.5
			C2.5,9,2.1,9.5,1.4,9.5C0.7,9.5,0,8.9,0,8.2c0-0.7,0.7-1.4,1.4-1.4c0.7,0,1.2,0.5,1.3,1.1l2.4-0.2c0.1,0,0.1,0,0.2,0h0.1
			c0.7-0.1,1.3-0.1,2-0.1C5.9,6.9,4.7,6.3,4,5.7C3.7,6,3.4,6.2,3.1,6.2c-0.7,0-1.4-0.7-1.4-1.4c0-0.7,0.7-1.4,1.4-1.4
			c0.7,0,1.4,0.7,1.4,1.4c0,0.2,0,0.3-0.1,0.5c0.8,0.5,1.9,1.1,3.5,1.8C8,7.2,8.1,7.3,8,7.6c1.9-0.1,4.2-0.1,6.6-0.1
			c1,0,2.1,0,3.2,0c0.5,0.1,1.1,0.1,1.7,0.1C16.3,6,13,4.2,13,1.1c0-0.7,0.2-1.1,0.8-1.1l0.5,0.2l0.2,0.2c0.2,0.1,0.2,0.1,0.3,0.1
			c3.9,2.1,6.6,3.9,6.8,7.2C27.2,7.8,31.1,7.9,33.2,7.9L33.2,7.9z M42.6,5.3c0,0.2,0,0.4,0,0.6c-0.1,0.8-0.5,1.9-1.4,3.3
			c-1.1,1.6-1.6,2.4-1.6,2.5c0.2,0.4,0.4,0.7,0.1,0.8c-0.2,0.1-0.4,0.1-0.5-0.2h-0.3c-0.2-0.1-0.2-0.2-0.2-0.5l0.2-0.2
			c-0.2-0.2-4.3-4.7-4.3-7.3c0-1.1,0.5-1.5,1.3-1.5c0.4,0,0.9,0.1,1.3,0.3c0.5,0.2,0.8,0.6,1.2,1c0.2,0.2,0.3,0.3,0.4,0.5
			c0.7-0.8,1.4-1.3,2.2-1.4C42,3.4,42.6,4,42.6,5.3z M80.4,8.3c0,0.7-0.7,1.4-1.4,1.4c-0.7,0-1.3-0.6-1.4-1.2
			c-0.4,0.1-0.9,0.1-1.8,0.2c-1,0.1-2.3,0.1-3.7,0.2h-4c1.3,1.6,2.9,2.7,4.7,3.4c0.1,0,0.1,0,0.1,0.1c0.2-0.1,0.4-0.2,0.6-0.2
			c0.7,0,1.4,0.7,1.4,1.4c0,0.7-0.7,1.4-1.4,1.4c-0.7,0-1.4-0.7-1.4-1.4c0-0.3,0.1-0.5,0.3-0.8c-2-0.8-3.7-2-5-3.7
			c-0.1-0.1-0.1-0.1-0.1-0.2c-1.8,0-3.7,0-5.7-0.1c-0.4,0.1-0.8,0.2-0.8,0c-2.1,0-4,0-5.8-0.1c3.1,0.7,3.4,2.4,4.4,5.1
			c0.3,0.8,0.6,1.5,0.8,1.9c0.2,0.2,0.3,0.5,0.4,0.8c0.3,0.3-0.2,0.7-0.5,0.3c-0.1-0.2-0.2-0.3-0.3-0.5c-2.4-0.4-4.2-1.7-5.3-3.9
			c-0.1-0.4-0.8-1.8-1.1-2.4c-0.4-0.7-0.8-1.1-1.3-1.4h-1.4c-3.3-0.1-5.3-0.2-5.9-0.4c-0.4-0.1-0.2-0.7,0.2-0.6
			c0.5,0.2,2.4,0.3,5.7,0.4h1c0.1-0.1,0.2-0.2,0.3-0.1C52.3,8,52.3,8,52.4,8c2.4,0.1,5.1,0.2,8,0.2c1-2.5,1.8-3.6,4.2-5.3
			c0.2-0.2,0.3-0.3,0.5-0.4l0.3-0.2c0.2-0.1,0.4-0.3,0.6-0.7V1.2l0.2-0.3c0.1-0.2,0.2-0.2,0.4-0.2c0.4,0,0.5,0.4,0.5,0.6L67,1.5v0.2
			c0.3,2.7-1.2,5.3-3.7,6.5c1.6,0,3,0.1,4.4,0.1s2.6,0,3.8-0.1c0.1,0,0.1,0,0.1-0.1c1-0.5,2-1.1,3-1.9c-0.2-0.2-0.2-0.5-0.2-0.7
			c0-0.7,0.7-1.4,1.4-1.4S77,4.8,77,5.5s-0.7,1.4-1.4,1.4c-0.2,0-0.5-0.1-0.7-0.2c-0.7,0.6-1.5,1.1-2.1,1.5c1-0.1,2-0.1,3.1-0.2
			c1-0.1,1.6-0.1,1.8-0.2C77.8,7.6,78.3,7,79,7c0.4,0,0.7,0.2,1,0.4C80.2,7.6,80.4,7.9,80.4,8.3z"/>
	</g>
</g>
</svg>
