<?xml version="1.0" encoding="utf-8"?>
<!-- Generator: Adobe Illustrator 18.1.1, SVG Export Plug-In . SVG Version: 6.00 Build 0)  -->
<svg version="1.1" id="Layer_1" xmlns="http://www.w3.org/2000/svg" xmlns:xlink="http://www.w3.org/1999/xlink" x="0px" y="0px"
	 viewBox="0 0 25.7 21.8" enable-background="new 0 0 25.7 21.8" xml:space="preserve">
<g>
	<g>
		<path fill="#FFFFFF" d="M14.1,11.1c0-1.2,0.2-3.5,0.3-4.5c-0.5-0.1-1-0.6-1-1.2s0.6-1.3,1.3-1.3c0.6,0,1.3,0.6,1.3,1.3
			s-0.5,1.1-1,1.3c-0.1,0.9-0.3,3.4-0.3,4.2c0.8-0.7,1.5-1.5,2.2-2.3L17,7.9c-0.3-1.9-0.4-3.4-0.4-4.5c0-0.6,0-1.2,0.1-1.6
			C16.9,0.6,17.4,0,18,0c0.6,0,1.1,0.6,1.1,1.7c0.1,1.1-0.2,2.4-0.7,4l-0.6,1.7C18.7,5.9,19.5,4.5,20,3c0,0,0,0-0.1,0
			c-0.2-0.3-0.4-0.6-0.4-0.9c0-0.6,0.6-1.3,1.3-1.3c0.6,0,1.3,0.6,1.3,1.3c0,0.6-0.6,1.3-1.3,1.3c-0.1,0-0.2,0-0.3-0.1
			c-0.8,1.9-1.9,3.8-3.2,5.5c0,0.1,0,0.2-0.1,0.4C18,9,18.9,8.9,20.2,8.6c1.4-0.2,2.4-0.4,3-0.6c-0.1-0.1-0.1-0.2-0.1-0.4
			c0-0.6,0.6-1.3,1.3-1.3c0.6,0,1.3,0.6,1.3,1.3c0,0.6-0.6,1.3-1.3,1.3c-0.4,0-0.6-0.1-0.9-0.4c-0.8,0.1-1.9,0.4-3.3,0.6
			c-1.6,0.2-2.8,0.5-3.7,0.8h-0.2c-1.7,1.8-3.7,3.5-6,4.8l3.1-1.1c1.4-0.5,2.3-0.8,2.8-0.9c0.6-0.2,1-0.3,1.3-0.3c0.2,0,0.3,0,0.4,0
			c0.4,0.1,0.5,0.4,0.5,0.9c0,0.4-0.1,0.6-0.1,0.9c-1,1.8-3.1,2.5-5.4,2.5c-1.5,0-3-0.3-4.4-0.8c-0.1-0.1-0.1-0.1-0.1-0.1
			c-1,0.5-2,0.9-3.1,1.3c-0.1,0.1-0.1,0.1-0.3,0.1c-0.6,0.2-1.2,0.4-1.9,0.6c1.8,1.2,3.5,1.9,5.3,2.2c0.1-0.4,0.6-1,1.3-1
			s1.3,0.6,1.3,1.3c0,0.6-0.6,1.3-1.3,1.3s-1.2-0.6-1.3-1.2c-2-0.3-4-1.1-5.8-2.4c-0.8,0.2-1.5,0.4-2.3,0.5
			c-0.4,0.1-0.5-0.5-0.1-0.6c1.6-0.3,3.2-0.7,4.7-1.3c0.8-3.4,1.4-5.5,1.8-6.4c0.4-0.8,1.1-1.2,2-1.4c0.9-0.1,1.6,0.3,1.6,1.4
			c0,1.1-0.6,2.2-1.8,3.4l-0.9,0.9l-1,0.9c-0.2,0.2-0.4,0.5-0.6,0.8c3.1-1.3,5.8-3,8.2-5.1C14.2,11.2,14.1,11.2,14.1,11.1z
			 M5.7,15.9c0.1-0.2,0.9-1.1,2.4-2.4c1.1-1.1,1.7-2.1,1.7-3c0-0.7-0.3-0.9-0.7-0.9c-0.1,0-0.2,0-0.2,0c-0.7,0.1-1.2,0.5-1.5,1.2
			C6.8,11.7,6.2,13.5,5.7,15.9L5.7,15.9z M8.9,15.8c1.3,0.4,2.7,0.7,4,0.7c2.1,0,4.1-0.6,5-2.2c0.1-0.2,0.1-0.4,0.1-0.7
			c0-0.6-0.2-0.6-0.7-0.6c-0.2,0.1-0.6,0.1-1,0.3C15.1,13.5,9.4,15.6,8.9,15.8L8.9,15.8z M17.4,6.6l0.4-1.2c0.5-1.4,0.7-2.7,0.6-3.7
			c0-0.4-0.1-0.7-0.2-0.9c-0.1-0.1-0.1-0.1-0.2-0.1c-0.4,0.1-0.6,0.5-0.8,1.3c-0.1,0.5-0.1,1-0.1,1.7C17.1,4.4,17.2,5.5,17.4,6.6z"
			/>
	</g>
</g>
</svg>
