<?xml version="1.0" encoding="utf-8"?>
<!-- Generator: Adobe Illustrator 18.1.1, SVG Export Plug-In . SVG Version: 6.00 Build 0)  -->
<svg version="1.1" id="Layer_1" xmlns="http://www.w3.org/2000/svg" xmlns:xlink="http://www.w3.org/1999/xlink" x="0px" y="0px"
	 viewBox="0 0 137 86.3" enable-background="new 0 0 137 86.3" xml:space="preserve">
<g>
	<g>
		<g>
			<path fill="#FFFFFF" d="M7.3,10.3c0.3-0.1,0.5,0.1,0.6,0.4c0.1,0.3-0.1,0.5-0.4,0.6c-0.1,0-0.3,0.1-0.5,0.1
				c-0.2,0-0.4,0.1-0.7,0.2c-0.1,0.1-0.3,0.1-0.5,0.1l-0.7,0.2c-0.1,0-0.2,0-0.3,0.1c-0.1,0-0.2,0.1-0.3,0.1c-0.2,0-0.4,0.1-0.5,0.1
				c-0.3,0-0.5,0.1-0.8,0.2c-0.2,0-0.4,0.1-0.6,0.1c-0.4,0.1-0.8,0.1-1.2,0.1c0.3,1.7,0.7,4.3,1.3,8C3,21,3.1,21.5,3.1,22
				c0.1,0.4,0.1,0.9,0.2,1.3C3.6,24.7,3.8,26,4,27.1c0.1,0.8,0.2,1.5,0.3,2.1c0.5-0.1,1.2-0.2,1.9-0.3l2.5-0.5
				c0.3-0.1,0.5,0.1,0.6,0.4c0.1,0.3-0.1,0.5-0.4,0.6l-0.8,0.1c-0.3,0-0.5,0.1-0.9,0.2c-0.4,0.1-0.7,0.2-0.8,0.2
				C5.7,30,5,30.1,4.5,30.2c0.4,1.9,0.7,3.6,1.1,5.2c0,0.1,0,0.2,0.1,0.3c0,0.2,0.1,0.4,0.2,0.7c0.4,1.4,0.9,3.8,1.2,5.1
				c0.3,1.6,0.6,4.3,0.4,6.1c0,0.6-1,0.6-1,0l0,0c0.2-1.6-0.1-4.2-0.4-5.8c-0.3-1.2-0.7-3.3-1.1-4.8c0-0.1,0-0.2-0.1-0.2
				c-0.1-0.4-0.2-0.8-0.3-1.1c-0.3-1.7-0.7-3.5-1.1-5.4c-0.1-0.1-0.1-0.2-0.2-0.3c0-0.1,0-0.2,0.1-0.3c-0.1-0.7-0.2-1.4-0.4-2.2
				c-0.2-1.1-0.4-2.4-0.6-3.8c-0.1-0.4-0.1-0.8-0.2-1.3c-0.1-0.5-0.1-1-0.2-1.5c-0.6-3.8-1.1-6.5-1.4-8.1C0.2,12.5,0,12.3,0,12l0,0
				c0.1-0.3,0.2-0.5,0.5-0.4c0.6,0.1,1.2,0,2-0.1c0.4-0.1,0.8-0.1,1.2-0.3C3.9,11.1,4.1,11,4.4,11L5,10.8l0,0c0.2,0,0.4-0.1,0.6,0
				c0,0.1,0,0.1,0.1,0.1l0-0.3C6.3,10.5,6.9,10.3,7.3,10.3L7.3,10.3z"/>
			<path fill="#FFFFFF" d="M14.1,18.2c0.3-0.1,0.5,0.1,0.6,0.4l0.3,1.6c0.8-1.1,1.9-1.8,3.1-2c2.3-0.4,4.1,1,4.6,3.5
				c0.1,0.3-0.1,0.5-0.4,0.6c-0.3,0.1-0.5-0.1-0.6-0.4c-0.3-1.9-1.7-3-3.3-2.7c-1.3,0.2-2.4,1.1-3.1,2.5c0.1,0.6,0.2,1.4,0.3,2.3
				c0.1,0.7,0.2,1.5,0.4,2.4c0.3,1.6,0.6,3.5,0.9,5.6c0.1,0.4,0.1,0.7,0.2,1.1c0.8,5.4,1.5,9.6,2,12.5c0.1,0.3-0.1,0.5-0.4,0.6
				c-0.3,0.1-0.5-0.1-0.6-0.4c-0.5-2.9-1.2-7-2-12.4c0-0.3-0.1-0.7-0.1-1c-0.3-2-0.6-3.8-0.8-5.3c-0.1-0.9-0.3-1.7-0.4-2.4
				c-0.2-1-0.3-1.8-0.9-5.8C13.6,18.4,13.8,18.2,14.1,18.2L14.1,18.2z"/>
			<path fill="#FFFFFF" d="M38.1,34.9c0,0,0,0.1,0.1,0.1c0.2,0.6,0.4,1.1,0.5,1.7c0.5,3.2-0.9,5.8-3.6,6.2c-2.7,0.5-5-1.8-5.9-5.8
				c-0.3-1.6-0.7-3.3-1-5.2c-0.1-0.7-0.2-1.3-0.3-2c-0.1-0.7-0.2-1.5-0.4-2.2c-0.7-5.1-0.9-8-0.5-9.2c0.5-1.5,1.6-2.5,3.1-2.8
				c1.2-0.2,2.4,0.1,3.2,0.9c1.6,1.5,2.3,3.9,2.7,5.5c0.2,0.8,0.3,1.5,0.4,2c0.1,0.5,0.2,1.2,0.4,2.1c0,0.1,0,0.3,0.1,0.4
				c0,0.2,0.1,0.5,0.1,0.7c0.1,0.4-0.1,0.7-0.4,0.7c-0.5,0.1-1.4,0.2-2.2,0.3c-0.9,0.2-1.4,0.2-1.8,0.3c-1.5,0.2-2.8,0.5-3.9,0.8
				c0,0.2,0,0.3,0.1,0.5c0.1,0.7,0.2,1.3,0.3,2c0.3,1.9,0.7,3.6,1,5.2c0.8,3.6,3,5.6,5.2,4.9c1.8-0.6,2.7-2.7,2.3-5
				c-0.1-0.5-0.2-1-0.4-1.6l0-0.1C37.1,34.6,37.9,34.3,38.1,34.9L38.1,34.9z M27.9,22.1c0.1,1.5,0.3,3.2,0.6,5.4
				c0,0.3,0.1,0.5,0.1,0.8c1.1-0.3,2.5-0.6,3.8-0.8c0.3-0.1,0.9-0.2,1.8-0.3c0.7-0.1,1.3-0.2,1.7-0.2c-0.1-0.5-0.2-0.9-0.2-1.4
				c-0.4-2.5-0.8-4.2-1.2-5.4c-1.1-2.9-2.4-4-4.1-3.7C28.1,16.9,27.6,18.1,27.9,22.1L27.9,22.1z"/>
			<path fill="#FFFFFF" d="M50.1,25.7c0.1,0.8,0.4,2,0.7,3.6c0.3,1.6,0.5,2.8,0.6,3.5c0.5,2.8,0.8,5.2,1,7.2
				c0.1,0.3-0.1,0.5-0.4,0.6c-0.3,0.1-0.5-0.1-0.6-0.4l-0.1-1.3c-0.6,1.4-1.6,2.3-2.9,2.5c-1.9,0.3-3.9-1.1-4.9-3.6
				c-0.4-1-0.9-3.1-1.5-6.8c-0.7-4-1.3-8.6-1.5-10.5c-0.4-4.1-0.1-5.6,1.5-6.6c0.4-0.2,0.7-0.4,1.1-0.4c0.5-0.1,0.9-0.1,1.3,0
				c1.1,0.3,2.1,0.8,3,1.7C46.5,11,45.8,7.4,45,4.4C45,4,45.1,3.8,45.4,3.8c0.3-0.1,0.5,0.1,0.6,0.4c0.7,2.7,1.3,5.3,1.9,8.7
				c0.3,1.8,0.5,3.1,0.7,4L50.1,25.7L50.1,25.7z M51,35.9L50.5,33c-0.1-0.8-0.3-1.9-0.6-3.5c-0.3-1.6-0.5-2.8-0.7-3.6l-1.4-8.3
				c-0.7-1.5-2.2-2.8-3.6-3.1c-0.3-0.1-0.6-0.1-1,0c-0.9,0.2-1.5,0.9-1.8,2.3c-0.1,0.5-0.1,1.6,0.1,3.7c0.2,1.9,0.8,6.4,1.5,10.4
				c0.5,2.9,1,5.5,1.5,6.6c0.8,2.1,2.3,3.2,3.8,3c1.5-0.2,2.5-1.8,2.5-4l0,0C50.8,36.1,50.9,35.9,51,35.9z"/>
			<path fill="#FFFFFF" d="M53.2,11.9l0.3,1.6c0.8-1.1,1.9-1.8,3.1-2c2.3-0.4,4.1,1,4.6,3.5c0.1,0.3-0.1,0.5-0.4,0.6
				c-0.3,0.1-0.5-0.1-0.6-0.4c-0.3-1.9-1.7-3-3.3-2.7c-1.3,0.2-2.4,1.1-3.1,2.5c0.1,0.6,0.2,1.4,0.3,2.3c0.1,0.7,0.2,1.5,0.4,2.4
				c0.3,1.6,0.6,3.5,0.9,5.6c0.1,0.4,0.1,0.7,0.2,1.1c0.8,5.4,1.5,9.6,2,12.5c0.1,0.3-0.1,0.5-0.4,0.6c-0.3,0.1-0.5-0.1-0.6-0.4
				c-0.5-2.9-1.2-7-2-12.4c0-0.3-0.1-0.7-0.1-1c-0.3-2-0.6-3.8-0.8-5.3c-0.1-0.9-0.3-1.7-0.4-2.4c-0.1-1-0.3-1.8-0.9-5.8
				c-0.1-0.3,0.1-0.5,0.4-0.6C53,11.4,53.2,11.6,53.2,11.9z"/>
			<path fill="#FFFFFF" d="M64.4,6.7c0-0.4-0.2-1.5-0.5-3.5c-0.1-0.3,0.1-0.5,0.4-0.6c0.3-0.1,0.5,0.1,0.6,0.4
				c0.3,1.9,0.5,3.1,0.5,3.7C65.3,7.3,64.4,7.3,64.4,6.7z M70.3,33.7c0.2,1.2,0.3,2,0.1,2.8c0,0.6-1,0.6-1-0.1l0,0
				c0.1-0.7,0.1-1.5-0.1-2.4c-0.1-0.5-0.2-1.1-0.4-1.8c0-0.2-0.1-0.3-0.1-0.5c0-0.1-0.1-0.2-0.1-0.3c-0.1-0.5-0.2-0.9-0.3-1.1
				c-0.4-2.2-1-5.5-1.9-9.8c-0.9-4.3-1.5-7.5-1.9-9.7c-0.1-0.3,0.1-0.5,0.4-0.6c0.3-0.1,0.5,0.1,0.6,0.4c0.4,2.2,1,5.4,1.9,9.7
				c0.9,4.3,1.5,7.6,1.9,9.8c0,0.2,0.1,0.5,0.2,1l0,0c0,0.1,0.1,0.2,0.1,0.4c0,0.1,0.1,0.3,0.1,0.5C70.1,32.5,70.2,33.1,70.3,33.7
				L70.3,33.7z"/>
			<path fill="#FFFFFF" d="M79,28.3c1.4,1.6,3.5,4.3,4.4,6l0,0.1c0.1,0.5-0.7,0.8-0.9,0.3c-0.4-0.8-1-1.7-1.9-2.8l-2.1-2.7
				c-0.8-0.9-2.6-3-3.9-4.4c-0.2-0.2-0.4-0.5-0.6-0.6l0.4,1.8c0,0.2,0.1,0.5,0.2,1l0,0c0,0.1,0.1,0.3,0.1,0.4c0,0.2,0.1,0.4,0.2,0.7
				c0.3,1.4,0.6,2.2,0.7,3.2c0.1,0.5,0.2,1,0.2,1.6c0.1,0.9,0.1,1.7,0,2.5c0,0.6-1,0.6-1-0.1c0.1-1,0-2.6-0.3-4.5
				c-0.2-0.6-0.4-1.4-0.6-2.5c0-0.2-0.1-0.4-0.1-0.5c0-0.2-0.1-0.3-0.1-0.5c-0.2-0.5-0.2-0.9-0.3-1.2c-0.8-3.9-1.5-7.5-2.4-12.5
				c-0.3-1.6-0.6-3.3-0.9-5.2c-0.6-4-1.1-6.5-1.3-7.8c-0.1-0.3,0.1-0.5,0.4-0.6c0.3-0.1,0.5,0.1,0.6,0.4c0.2,1.4,0.6,3.8,1.2,6.8
				c0.5,3.1,0.9,5.8,1.4,8.2c0.4,2.1,0.8,4.1,1.1,6.1c1-2,1.9-4.7,3.1-9.2c0.1-0.3,0.2-0.6,0.2-0.9c0.2-0.6,0.3-1.1,0.4-1.6
				c0.1-0.5,0.2-0.8,0.3-1.1c0.1-0.5,0.1-0.5,0.1-0.6c0.2-0.5,1-0.4,1,0.2l0,0c0,0.1-0.1,0.3-0.1,0.4c0,0.1,0,0.1-0.1,0.2
				c-0.2,0.6-0.5,1.5-0.8,2.7l-1.2,4.1c-0.6,2.1-1.7,5.1-2.6,6.8L79,28.3L79,28.3z"/>
		</g>
	</g>
	<g>
		<g>
			<path fill="#FFFFFF" d="M101.7,58c-0.8,0.1-1.6,0.2-2.3,0.3c-1.4,0.2-2.6,0.6-3.9,1c0,0.1,0,0.2,0,0.3c0.5,2.4,0.9,4.6,1.3,6.7
				c0.7,3.9,1.2,7.4,1.5,10.3c0.5,0,1.1-0.1,1.8-0.2c1.2-0.2,2.6-0.6,4.5-1c0.3-0.1,0.5,0.1,0.6,0.4c0.1,0.3-0.1,0.5-0.4,0.6
				c-1.4,0.4-2.9,0.8-4.4,1c-1.3,0.2-2.2,0.3-2.9,0.2c-0.5,0-0.6-0.7-0.2-0.9c-0.3-2.9-0.8-6.4-1.5-10.3c-0.2-1.3-0.8-4.2-1.3-6.8
				c-1.4,0.6-2.8,1.2-4.3,1.9l-4.5,2.2c-2.7,1.2-5.5,2.1-8,2.5c-6.2,1.1-10.3-0.5-11.8-4.5c-0.2-0.6,0.7-1,0.9-0.4
				c1.3,3.6,5,4.9,10.6,4c2.4-0.4,5.1-1.3,7.9-2.5c0.6-0.2,2.1-0.9,4.5-2.1c1.6-0.8,3-1.5,4.5-2c-0.3-1.6-0.6-2.8-0.6-3.2
				c-1.5-7.5-2.4-12-2.7-13.7l0.2,0c-0.3,0.1-0.5-0.1-0.6-0.4c-0.1-0.3,0.1-0.5,0.4-0.6c0.8-0.1,1.9-0.3,3.5-0.7
				c1.6-0.3,2.7-0.5,3.5-0.6c0.3-0.1,0.5,0.1,0.6,0.4c0.1,0.3-0.1,0.5-0.4,0.6c-0.8,0.1-1.8,0.3-3.3,0.6c-1.3,0.3-2.2,0.4-2.9,0.6
				c0.3,1.6,1.1,5.8,2.6,12.9c0.1,0.7,0.3,1.3,0.4,2c0.1,0.6,0.2,1.2,0.4,1.8c1.2-0.4,2.6-0.8,4-1c0.7-0.1,1.4-0.2,2.1-0.3
				C102.4,56.9,102.6,57.9,101.7,58L101.7,58z"/>
			<path fill="#FFFFFF" d="M106.2,38.4c0.3-0.1,0.5,0.1,0.6,0.4c0.7,4,1.8,10,3.3,18c0.2,1.1,0.4,2.2,0.6,3.3c0.2,1,0.4,1.9,0.5,2.8
				c0.5,2.9,1,5.4,1.3,7.6c0.3,1.7,0.6,3.1,0.8,4.4c0.1,0.3-0.1,0.5-0.4,0.6c-0.3,0.1-0.5-0.1-0.6-0.4c-0.2-1.3-0.5-2.7-0.8-4.4
				c-0.4-2.2-0.8-4.7-1.3-7.6c-0.2-0.9-0.3-1.8-0.5-2.8c-0.2-1-0.4-2.1-0.6-3.3c-1.5-8-2.6-14-3.3-18
				C105.8,38.7,105.9,38.5,106.2,38.4L106.2,38.4z"/>
			<path fill="#FFFFFF" d="M115.3,43.3c0-0.4-0.2-1.5-0.5-3.5c-0.1-0.3,0.1-0.5,0.4-0.6c0.3-0.1,0.5,0.1,0.6,0.4
				c0.3,1.9,0.5,3.1,0.5,3.7C116.2,43.9,115.2,43.9,115.3,43.3z M121.1,70.3c0.2,1.2,0.3,2,0.1,2.8c0,0.6-1,0.6-1-0.1l0,0
				c0.1-0.7,0.1-1.5-0.1-2.4c-0.1-0.5-0.2-1.1-0.4-1.8c0-0.2-0.1-0.3-0.1-0.5c0-0.1-0.1-0.2-0.1-0.3c-0.1-0.5-0.2-0.9-0.3-1.1
				c-0.4-2.2-1-5.5-1.9-9.8c-0.9-4.3-1.5-7.5-1.9-9.7c-0.1-0.3,0.1-0.5,0.4-0.6c0.3-0.1,0.5,0.1,0.6,0.4c0.4,2.2,1,5.4,1.9,9.7
				c0.9,4.3,1.5,7.6,1.9,9.8c0,0.2,0.1,0.5,0.2,1l0,0c0,0.1,0.1,0.2,0.1,0.4c0,0.1,0.1,0.3,0.1,0.5C120.9,69.2,121,69.8,121.1,70.3
				L121.1,70.3z"/>
			<path fill="#FFFFFF" d="M134,54.1c0.8,3.6,1.8,8.9,3,16c0.1,0.3-0.1,0.5-0.4,0.6c-0.3,0.1-0.5-0.1-0.6-0.4
				c-1.2-7.1-2.2-12.4-3-16c-0.2-0.9-0.3-1.7-0.5-2.3c-0.2-1.3-0.5-3.2-1-4.5c-0.5-1.4-1.7-2.2-3.2-1.9c-1.4,0.2-2.5,1.3-2.7,2.6
				l1.1,6.2c0.2,0.8,0.3,1.6,0.4,2.3c0.2,0.6,0.3,1.1,0.3,1.6c0.2,0.9,0.3,1.7,0.4,2.5c0.7,4.2,1.2,7.9,1.5,10.8
				c0.1,0.3-0.1,0.5-0.4,0.6c-0.3,0.1-0.5-0.1-0.6-0.4c-0.2-3-0.8-6.6-1.5-10.8c-0.1-0.8-0.3-1.6-0.4-2.5c-0.3-1.3-2-9.8-2.6-13.2
				c-0.1-0.3,0.1-0.5,0.4-0.6c0.3-0.1,0.5,0.1,0.6,0.4l0.3,1.5c0.6-1.1,1.6-1.7,2.8-1.9c0.9-0.2,1.9,0,2.7,0.4
				c1.6,0.9,2.1,2.8,2.4,4.5c0.1,0.4,0.2,0.8,0.3,1.2c0.1,0.4,0.1,0.7,0.1,1.1C133.7,52.5,133.8,53.2,134,54.1L134,54.1z"/>
		</g>
	</g>
	<path fill="#FFFFFF" d="M53.7,75.8l0-0.2c0.2-0.5,0.5-1.2,1.1-2.3c1-1.9,1.3-2.8,1.5-3.9c-1.1-0.1-1.9-1-1.8-2.2
		c0.1-1.1,1-1.9,2.2-1.8c1.1,0.1,1.9,1,1.8,2.2c-0.1,0.5-0.3,1-0.7,1.4c-0.2,0.1-0.4,0.2-0.6,0.3c-0.2,1.3-0.8,2.4-1.7,4.4L55,74.9
		c2-1.6,3.8-3.1,5.3-4.7c3.3-3.5,5.1-6.7,5.4-9.7c0.1-1.2,0-2.4-0.4-3.6c-0.9-3-3.8-4.9-6.8-5.2c-4.3-0.4-7.7,1.9-7.7,6.4
		c0,1.8,1.4,2.6,2.9,2.8c1,0.1,2.1-0.1,2.6-0.6c-0.1-0.1-0.3-0.2-0.4-0.5c-0.4-0.4-0.5-0.9-0.5-1.4c0.1-1.1,1-1.9,2.2-1.8
		s1.9,1,1.8,2.2c-0.1,1.1-1,1.9-2.2,1.8c-0.4,0.4-0.7,0.7-1.2,0.8c-0.8,0.3-1.7,0.4-2.5,0.3c-1-0.1-1.9-0.5-2.6-1.2
		c-0.9-0.7-1.1-1.9-1-3.4c0.4-4.4,4.1-6.8,8.5-6.3c3.3,0.3,6.6,2.3,7.7,5.7c0.5,1.4,0.6,2.8,0.5,4.1c-0.7,7-8.5,13.3-13.7,16.7
		c0.8,0,3.1,0.1,6.9,0.5c2.8,0.4,4.9,0.2,6.6-0.6c-0.1-0.3-0.2-0.5-0.1-0.9c0.1-1.1,1-1.9,2.2-1.8c1.1,0.1,1.9,1,1.8,2.2
		c-0.1,1.1-1,1.9-2.2,1.8c-0.5-0.1-0.9-0.3-1.3-0.7c-1.7,0.9-4,1.2-7,0.8l-3.6-0.4c-0.9-0.1-2.3-0.2-3.3-0.1
		c-0.5,0.1-1.1,0.2-1.6,0.3c-2.1,1.4-3,1.7-4.8,2.3l0,0.1c1.5,0.9,2.4,1.6,2.7,2.4c0.1,0.3,0,0.6,0,0.9l-0.1,0.8
		c0,0.3-0.1,0.4-0.5,0.4c-0.3,0-0.4-0.1-0.4-0.5l0.1-0.8c0-0.2,0-0.4-0.1-0.5c-0.1-0.5-1-1.2-2.2-2l-0.7-0.5l-0.4,0.2
		c-1.5,0.5-2.5,0.9-2.9,1.4c-0.1,0.1-0.1,0.3-0.1,0.5l-0.1,0.8c0,0.3-0.1,0.4-0.5,0.4C41,84.4,41,84.3,41,84l0.1-0.8
		c-0.1-0.3,0.1-0.6,0.3-0.9c0.4-0.6,1.4-1.1,3-1.6l-0.1-0.1c-1.3-0.7-1.9-1.2-2.9-2.2c-1.6-0.7-4-1.1-6.8-1.7L31.2,76
		c-2.4-0.6-4.2-1.3-5.4-1.9c-0.9-0.4-1.5-0.9-1.9-1.5c-0.3,0.1-0.6,0.1-1,0.1c-1.1-0.1-1.9-1-1.8-2.2c0.1-1.1,1-1.9,2.2-1.8
		c1.1,0.1,1.9,1,1.8,2.2c-0.1,0.5-0.2,0.8-0.5,1.1c0.4,0.5,1,0.9,1.6,1.3c1.1,0.6,2.8,1.2,5.2,1.8l3.3,0.6c1.4,0.3,2.4,0.4,2.7,0.6
		c0.9,0.2,1.7,0.4,2.5,0.6c-6.8-6.5-9.9-13.4-9.1-20.8c0.4-4,2.1-5.8,5-6.9c1.2-0.4,2.5-0.6,3.8-0.4c2.4,0.2,4.6,1.4,6,3.4
		c1,1.6,1.3,3.4,0.9,5.5c-0.3,2.1-2,3-4,3c-0.9-0.1-1.7-0.4-2.4-0.9c-0.4-0.4-0.7-0.7-0.9-1c-1.1-0.1-1.9-1-1.8-2.2
		c0.1-1.1,1-1.9,2.2-1.8s1.9,1,1.8,2.2c-0.1,0.5-0.3,1-0.7,1.4c-0.2,0.1-0.4,0.2-0.7,0.2c0.5,0.6,1.4,1.1,2.4,1.2
		c1.4,0.1,2.9-0.4,3.3-2.2c0.9-4.4-2-7.6-6.2-8c-2.8-0.3-5.6,1-7.2,3.6c-0.3,0.5-0.5,1.2-0.6,2.3c-0.1,0.9-0.1,2.1-0.1,3.5
		c0.2,4.8,2.3,9.7,6.3,14.5c-0.4-1.1-0.5-2.2-0.4-3.5c0.1-0.9,0.3-1.9,0.7-3C38,67,38,67,38,67c-0.4-0.5-0.5-1-0.5-1.5
		c0.1-1.1,1-1.9,2.2-1.8c1.1,0.1,1.9,1,1.8,2.2c-0.1,1.1-1,1.9-2.2,1.8c-0.1,0-0.3,0-0.4,0c-0.3,0.9-0.5,1.8-0.6,2.6
		c-0.2,1.6,0.1,3,0.7,4.4c0.1,0.1,0.1,0.3,0,0.4c0.8,0.9,1.8,1.9,2.9,2.7c0.1,0.1,0.2,0.1,0.3,0.1c0.1,0.1,0.1,0.2,0.2,0.3l1.2,1
		c0.2,0.1,0.6,0.4,1.2,0.7l0.7,0.4c1.4-0.4,2.3-0.7,2.6-0.8l2.1-1.1c0-0.2,0.1-0.3,0.2-0.4c0.2-0.1,0.4-0.1,0.5-0.2L53.7,75.8z
		 M46.3,83.1c0.3,0.4,0.4,1,0.4,1.5c-0.1,1.1-1,1.9-2.2,1.8c-1.1-0.1-1.9-1-1.8-2.2c0.1-1.1,1-1.9,2.2-1.8
		C45.4,82.4,45.9,82.7,46.3,83.1z"/>
</g>
</svg>
