<?xml version="1.0" encoding="utf-8"?>
<!-- Generator: Adobe Illustrator 18.1.1, SVG Export Plug-In . SVG Version: 6.00 Build 0)  -->
<svg version="1.1" id="Layer_1" xmlns="http://www.w3.org/2000/svg" xmlns:xlink="http://www.w3.org/1999/xlink" x="0px" y="0px"
	 viewBox="0 0 324.9 167" enable-background="new 0 0 324.9 167" xml:space="preserve">
<g>
	<g>
		<g>
			<path fill="#FFFFFF" d="M180.1,24.7c0.3,0.3,0.4,0.8,0.4,1.2c0,0.9-0.7,1.6-1.6,1.6s-1.6-0.7-1.6-1.6c0-0.4,0.2-0.8,0.5-1.2
				c0.1-0.1,0.3-0.2,0.4-0.3c-0.1-0.6-0.5-1-1-1c-0.4,0-0.9,0.2-1.4,0.8c-0.8,0.8-1.3,2-1.3,3.4c0,1.1,0.3,2.3,0.9,3.7
				c0.4,0.8,1.2,1.2,2.1,1.2c1,0,2.2-0.6,3.1-1.8c0.9-1.3,1.6-3.4,1.6-5.5c0-1.6-0.4-3.3-1.4-4.7l-1.2-1h-0.1
				c-0.2-0.1-0.3-0.3-0.6-0.4c-1.4-0.7-3-1-4.7-1c-3.9,0-8.1,1.7-10.5,4.2c0.2,0.6,0.3,1.3,0.3,2c0,1-0.2,2.1-0.5,3.4
				c-0.2,0.6-0.3,1.1-0.6,1.6l0.2,0.3c1,1.2,2.1,1.7,3,1.7c0.5,0,1.1-0.1,1.6-0.4c1-0.5,1.6-1.3,1.6-2.2c0-0.3-0.1-0.6-0.2-1
				c-0.2-0.3-0.4-0.6-0.7-0.8c-0.1,0.2-0.2,0.3-0.3,0.4c-0.3,0.3-0.7,0.5-1.1,0.5c-0.9,0-1.6-0.7-1.6-1.6c0-0.9,0.7-1.6,1.6-1.6
				c0.9,0,1.6,0.8,1.6,1.5c0.8,0.6,1.4,1.5,1.4,2.5c0,0.3-0.1,0.7-0.2,1.1c-0.6,1.3-1.9,2.2-3.7,2.2c-0.3,0-0.6,0-0.9-0.1
				c-0.8-0.1-1.5-0.8-2.4-1.8c-0.9,1.4-2.2,2.1-3.4,2.1c-0.6,0-1.1-0.2-1.6-0.5c-0.9-0.6-1.4-1.7-1.4-2.8c0-0.6,0.2-1.3,0.5-1.8
				c0.3-0.4,0.6-0.7,1-0.8c0-0.1,0-0.3,0-0.3c0-0.9,0.7-1.6,1.6-1.6c0.9,0,1.6,0.7,1.6,1.6s-0.7,1.6-1.6,1.6c-0.4,0-0.8-0.2-1.1-0.4
				c-0.1-0.1-0.2-0.2-0.2-0.3c-0.6,0.3-1.2,1-1.2,2c0,0.2,0,0.4,0.1,0.7c0.2,1.2,1.1,2.1,2.3,2.1c0.3,0,0.6-0.1,0.9-0.2
				c0.8-0.3,1.4-0.8,2-1.9c-0.6-1-1-2-1-3c0-1.3,0.6-2.7,1.7-4.1l0.1-0.1c-1-2.3-4.1-4.6-6.9-5.3c-0.9-0.3-1.7-0.4-2.6-0.4
				c-1.3,0-2.6,0.3-4,0.9c-0.1,0.1-0.6,0.5-1.5,1.3c-0.7,0.4-1.2,0.9-1.5,1.3c-1.9,2.6-3.4,6.4-3.4,9.4c0,2,0.7,3.6,2.4,4.2
				c0.4,0.2,0.9,0.2,1.4,0.2c2.9,0,6-2.7,6-5.2c0-2-1.7-3.5-3.2-3.5c-1.2,0-1.9,0.8-2.3,2.4c0.7,0.3,1.3,0.7,1.3,1.6
				s-0.7,1.6-1.6,1.6c-0.9,0-1.6-0.7-1.6-1.6s0.7-1.5,1.3-1.6c0.4-1.6,1.2-2.6,2.3-3c0.2-0.1,0.5-0.1,0.7-0.1c2.1,0,4.2,2.2,3.9,4.6
				c-0.2,2.8-3.6,5.5-6.6,5.5c-0.5,0-1.1-0.1-1.6-0.3c-2.1-0.8-2.9-2.6-2.9-4.8c0-3.2,1.7-7.2,3.5-9.7c-0.9,0.7-1.9,1.6-3.2,2.8
				c-0.4,0.3-2.6,2.4-3.2,3l-1.6,1.3c-1.6,1.3-2,1.6-3.4,2.5c-1.4,1-2.3,1.3-3.7,1.7c-0.7,0.2-1.5,0.4-2.4,0.4c-0.9,0-1.8-0.2-3-0.8
				c-2.4-1.2-4.3-3.3-4.6-5.6c-0.2-1.1,0.2-2.3,1.1-3.5c1.3-1.3,3.3-2.3,4.9-2.3c3.4,0,5,1.7,5,3.8c0,0.4-0.1,0.8-0.2,1.3
				c-0.3,1.3-1,2-1.9,2.3c-0.3,0.1-0.6,0.2-0.8,0.2s-0.5-0.1-0.8-0.2c-0.1,0.1-0.3,0.1-0.4,0.1c-0.9,0-1.6-0.7-1.6-1.6
				s0.7-1.6,1.6-1.6c0.9,0,1.6,0.7,1.6,1.6c0,0.4-0.2,0.8-0.4,1.1c0.3,0,0.4-0.1,0.7-0.2c1-0.4,1.7-1.7,1.7-3c0-0.6-0.2-1.3-0.6-1.8
				c-0.8-0.9-2-1.4-3.8-1.4c-2.4,0-5.4,2-5.4,4.7c0,1,0.4,2.1,1.4,3.3c1.6,1.8,4,3.1,5.9,2.8c1.3-0.1,2.6-0.6,3.6-1
				c0.5-0.2,1.1-0.5,1.8-0.9l1.7-1.2c0.7-0.4,2.8-2.3,3.2-2.7c0.3-0.3,0.8-0.8,1.7-1.6c0.8-0.8,1.3-1.3,1.5-1.4
				c1.3-1.2,2.3-2.1,3.3-2.8c-1.2,0.3-2.5,0.5-3.7,0.5c-2.6,0-5-0.8-6.4-2.3c-1.1-1.2-1.7-2.6-1.7-4.4c0-1.8,1.5-3.6,3.6-4.7
				c1.1-0.5,2.1-0.8,3-0.8c2.4,0,3.7,1.8,3.7,3.7c0,0.4,0,0.8-0.1,1.2c-0.3,1.1-0.9,1.6-1.7,1.9c-0.1,0.2-0.3,0.3-0.3,0.5
				c-0.3,0.3-0.8,0.4-1.2,0.4c-0.9,0-1.6-0.7-1.6-1.6s0.7-1.6,1.6-1.6c0.9,0,1.6,0.8,1.6,1.5c0.6-0.2,1.1-1.2,1.1-2.3
				c0-0.8-0.3-1.6-0.9-2.1c-0.6-0.6-1.3-0.8-2.1-0.8c-0.8,0-1.7,0.3-2.8,0.7c-1.8,0.8-3.2,2.3-3.2,3.7c-0.1,4.2,2.8,6.4,7.3,6.4
				c2.6,0,5.3-0.9,7.2-2.2c0.1-0.1,0.4-0.2,0.5-0.2c1.5-0.6,2.9-0.9,4.1-0.9c2.7,0,5,1.2,6.9,2.5c1.4,1,2.4,2.1,3,3.3
				c2.6-2.6,6.7-4.1,10.7-4.1c1.6,0,3.1,0.3,4.5,0.8c0.1,0,0.2,0,0.3,0.1l0.4,0.2l0.1,0.1h0.3c0.3,0.3,0.7,0.5,0.9,0.8
				c1.6,0.8,3.1,1.1,4.4,1.1c1.7,0,3.2-0.6,4.5-1.7c1.4-1.2,2.1-2.6,2.1-4.1c0-1-0.4-2-1.2-2.8c-1.3-1.3-3.5-2-5.5-2
				c-0.4,0-0.8,0-1.2,0.1c-1.2,0.2-1.9,0.8-1.9,1.6c0,0.6,0.3,1.2,1,2c0.2-0.1,0.3-0.1,0.6-0.1c0.9,0,1.6,0.7,1.6,1.6
				s-0.7,1.6-1.6,1.6c-0.9,0-1.6-0.7-1.6-1.6c0-0.4,0.2-0.8,0.4-1.1c-0.7-0.9-1-1.8-1-2.5c0-1.4,1.3-2.3,3.7-2.3
				c2.1,0,4.5,0.8,6,2.2c0.9,1,1.3,2.2,1.3,3.3c0,1.6-0.8,3.3-2.3,4.5c-1.4,1.2-3.1,1.8-4.9,1.8c-1,0-2.1-0.2-3.3-0.6
				c0.6,0.6,1.5,1.4,2.6,2.7c3.5,3.9,7.1,8.6,11.8,8.6c1.2,0,2.5-0.3,4-1.1c2.3-1.3,3.3-3,3.3-4.7c0-1.4-0.7-2.9-1.9-4.1
				c-1.3-1.3-2.6-1.8-3.6-1.8c-1.1,0-2,0.6-2.5,1.6c0.4,0.1,1.1,0.6,1.1,1.5c0,0.9-0.7,1.6-1.6,1.6c-0.9,0-1.6-0.7-1.6-1.6
				c0-0.9,0.7-1.5,1.3-1.6c0.6-1.4,1.7-2.1,3.1-2.1c1.3,0,2.7,0.6,4.1,1.9c1.4,1.3,2.2,3,2.2,4.6c0,1.9-1.1,3.8-3.6,5.2
				c-1.3,0.7-2.6,1.1-3.9,1.1c-2.5,0-5.1-1.2-7.9-3.7c-0.9-0.9-2.5-2.6-4.8-5l-1.6-1.7c0.4,1.1,0.6,2.3,0.6,3.5
				c0,2.1-0.6,4.2-1.7,5.7c-1,1.4-2.4,2.1-3.7,2.1c-1.1,0-2.1-0.5-2.6-1.6c-0.6-1.5-0.9-2.9-0.9-4c0-1.6,0.5-2.9,1.5-3.9
				c0.7-0.7,1.4-1.1,2-1.1c0.8,0,1.4,0.6,1.5,1.6c0.1,0,0.1,0,0.1,0C179.4,24.3,179.8,24.5,180.1,24.7L180.1,24.7z M159.7,15.9
				c-0.1-1.9-1.4-2.8-4.7-4.8c-1.8-1.1-2.8-1.8-3.5-3.3c-0.3-0.6-0.4-1.2-0.4-1.9c0-0.1,0-0.3,0-0.4c-0.7-0.1-1.3-0.7-1.3-1.6
				s0.7-1.6,1.6-1.6c0.9,0,1.6,0.7,1.6,1.6s-0.7,1.4-1.1,1.5c0,0.2-0.1,0.5-0.1,0.7c0,1.7,1.2,2.9,3.6,4.4c3.3,2.1,4.8,3.1,5,5.4
				c0,0.3-0.1,0.3-0.3,0.3C159.7,16.2,159.7,16.1,159.7,15.9L159.7,15.9z M162.6,16.8c0-0.2,0.1-0.5,0.1-0.8c0-1.6-0.9-3.7-2.7-6.2
				c-0.1-0.1-0.3-0.4-0.7-0.9l-0.7-1.1l-0.6-0.9c-0.3-0.4-0.5-0.8-0.6-1l-0.4-1c-0.2-0.3-0.3-0.7-0.3-1c0-0.1,0-0.1,0-0.2
				c-0.2-0.1-0.3-0.3-0.4-0.3c-0.3-0.3-0.4-0.7-0.4-1.1c0-0.9,0.7-1.6,1.6-1.6s1.6,0.7,1.6,1.6s-0.7,1.6-1.6,1.6c0,0,0,0-0.1,0
				c0.1,0.4,0.2,0.8,0.5,1.3l0.4,0.8c0.3,0.3,0.9,1.3,1.1,1.6c0.2,0.3,0.9,1.5,1.2,1.8c1.8,2.7,2.7,5,2.7,6.8c0,0.3,0,0.5-0.1,0.8
				C163.2,17.4,162.6,17.2,162.6,16.8C162.6,16.8,162.6,16.8,162.6,16.8L162.6,16.8z M163.2,23.1c-0.8,1.1-1.3,2.3-1.3,3.4
				c0,0.8,0.2,1.5,0.6,2.3c0.2-0.3,0.3-0.7,0.3-1.1c0.3-1.1,0.5-2.1,0.5-3.1C163.3,24,163.3,23.5,163.2,23.1L163.2,23.1z
				 M163.3,16.6c0-2.7,0.9-5.4,2.7-8.2c0.1-0.1,0.2-0.4,0.5-0.8l0.5-0.9l0.5-0.7c0.4-0.8,0.5-1,0.8-1.7c0.1-0.3,0.2-0.6,0.3-0.8
				c0-0.2,0-0.3,0-0.4c-0.4-0.1-1.1-0.6-1.1-1.5c0-0.9,0.7-1.6,1.6-1.6c0.9,0,1.6,0.7,1.6,1.6c0,0.9-0.7,1.5-1.4,1.6
				c-0.1,0.3-0.1,0.4-0.2,0.7c-0.1,0.8-0.2,1.1-0.7,2l-0.5,0.9c-0.1,0.3-1.3,2-1.3,2c-1.7,2.7-2.5,5.3-2.5,7.9
				c0,0.3-0.1,0.3-0.3,0.3C163.4,17,163.3,16.9,163.3,16.6z M165.3,16.5l0.3-0.8c0.1-0.3,0.2-0.6,0.4-0.8l0.4-0.8
				c0.1-0.2,0.3-0.4,0.5-0.7s0.4-0.4,0.5-0.6c0.1-0.1,0.3-0.3,0.7-0.6c0.3-0.3,0.5-0.5,0.6-0.6s0.3-0.3,0.6-0.5
				c0.3-0.3,0.5-0.4,0.6-0.5c2.1-1.9,3.3-3.4,3.6-5.5c-0.4-0.3-1-0.6-1-1.5c0-0.9,0.7-1.6,1.6-1.6s1.6,0.7,1.6,1.6
				c0,0.9-0.7,1.6-1.6,1.6c-0.3,2.4-1.5,3.9-3.8,5.9c-0.1,0.1-1,1-1.2,1.1s-0.9,0.8-1.1,1.1c-0.1,0.1-0.2,0.3-0.5,0.5
				c-0.3,0.3-0.4,0.5-0.5,0.7c-0.1,0.2-0.2,0.3-0.4,0.6c-0.3,0.5-0.6,1-0.7,1.6C165.8,17,165.2,16.9,165.3,16.5
				C165.2,16.5,165.3,16.5,165.3,16.5L165.3,16.5z"/>
		</g>
	</g>
	<g>
		<g>
			<path fill="#FFFFFF" d="M144.8,102.3c-0.3-0.3-0.4-0.8-0.4-1.2c0-0.9,0.7-1.6,1.6-1.6s1.6,0.7,1.6,1.6c0,0.4-0.2,0.8-0.5,1.2
				c-0.1,0.1-0.3,0.2-0.4,0.3c0.1,0.6,0.5,1,1,1c0.4,0,0.9-0.2,1.4-0.8c0.8-0.8,1.3-2,1.3-3.4c0-1.1-0.3-2.3-0.9-3.7
				c-0.4-0.8-1.2-1.2-2.1-1.2c-1,0-2.2,0.6-3.1,1.8c-0.9,1.3-1.6,3.4-1.6,5.5c0,1.6,0.4,3.3,1.4,4.7l1.2,1h0.1
				c0.2,0.1,0.3,0.2,0.6,0.4c1.4,0.7,3,1,4.7,1c3.9,0,8.1-1.7,10.5-4.2c-0.2-0.6-0.3-1.3-0.3-2c0-1,0.2-2.1,0.5-3.4
				c0.2-0.6,0.3-1.1,0.6-1.6l-0.2-0.3c-1-1.2-2.1-1.7-3-1.7c-0.5,0-1.1,0.1-1.6,0.4c-1,0.5-1.6,1.3-1.6,2.2c0,0.3,0.1,0.6,0.2,1
				c0.2,0.3,0.4,0.6,0.7,0.8c0.1-0.2,0.2-0.3,0.3-0.4c0.3-0.3,0.7-0.5,1.1-0.5c0.9,0,1.6,0.7,1.6,1.6c0,0.9-0.7,1.6-1.6,1.6
				c-0.9,0-1.6-0.8-1.6-1.5c-0.8-0.6-1.4-1.5-1.4-2.5c0-0.3,0.1-0.7,0.2-1.1c0.6-1.3,1.9-2.2,3.7-2.2c0.3,0,0.6,0,0.9,0.1
				c0.8,0.1,1.5,0.8,2.4,1.8c0.9-1.4,2.2-2.1,3.4-2.1c0.6,0,1.1,0.2,1.6,0.5c0.9,0.6,1.4,1.7,1.4,2.8c0,0.6-0.2,1.3-0.5,1.8
				c-0.3,0.4-0.6,0.7-1,0.8c0,0.1,0,0.2,0,0.3c0,0.9-0.7,1.6-1.6,1.6c-0.9,0-1.6-0.7-1.6-1.6s0.7-1.6,1.6-1.6c0.4,0,0.8,0.2,1.1,0.4
				c0.1,0.1,0.2,0.2,0.2,0.2c0.6-0.3,1.2-1,1.2-2c0-0.2,0-0.4-0.1-0.7c-0.2-1.2-1.1-2.1-2.3-2.1c-0.3,0-0.6,0.1-0.9,0.2
				c-0.8,0.3-1.4,0.8-2,1.9c0.6,1,1,2,1,3c0,1.3-0.6,2.7-1.7,4.1l-0.1,0.1c1,2.3,4.1,4.6,6.9,5.3c0.9,0.3,1.7,0.4,2.6,0.4
				c1.3,0,2.6-0.3,4-0.9c0.1-0.1,0.6-0.5,1.5-1.3c0.7-0.4,1.2-0.9,1.5-1.3c1.9-2.6,3.4-6.4,3.4-9.4c0-2-0.7-3.5-2.4-4.2
				c-0.4-0.2-0.9-0.2-1.4-0.2c-2.9,0-6,2.7-6,5.2c0,2,1.7,3.5,3.2,3.5c1.2,0,1.9-0.8,2.3-2.4c-0.7-0.2-1.3-0.7-1.3-1.6
				c0-0.9,0.7-1.6,1.6-1.6c0.9,0,1.6,0.7,1.6,1.6c0,0.9-0.7,1.5-1.3,1.6c-0.4,1.6-1.2,2.6-2.3,3c-0.2,0.1-0.5,0.1-0.7,0.1
				c-2.1,0-4.2-2.2-3.9-4.6c0.2-2.8,3.6-5.5,6.6-5.5c0.5,0,1.1,0.1,1.6,0.3c2.1,0.8,2.9,2.6,2.9,4.8c0,3.2-1.7,7.2-3.5,9.7
				c0.9-0.7,1.9-1.6,3.2-2.8c0.4-0.3,2.6-2.4,3.2-3l1.6-1.3c1.6-1.3,2-1.6,3.4-2.5c1.4-1,2.3-1.3,3.7-1.7c0.7-0.2,1.5-0.4,2.4-0.4
				c0.9,0,1.8,0.2,3,0.8c2.4,1.2,4.3,3.3,4.6,5.6c0.2,1.1-0.2,2.3-1.1,3.5c-1.3,1.3-3.3,2.3-4.9,2.3c-3.4,0-5-1.7-5-3.8
				c0-0.4,0.1-0.8,0.2-1.3c0.3-1.3,1-2,1.9-2.3c0.3-0.1,0.6-0.2,0.8-0.2s0.5,0.1,0.8,0.2c0.1-0.1,0.3-0.1,0.4-0.1
				c0.9,0,1.6,0.7,1.6,1.6c0,0.9-0.7,1.6-1.6,1.6s-1.6-0.7-1.6-1.6c0-0.4,0.2-0.8,0.4-1.1c-0.3,0-0.4,0.1-0.7,0.2
				c-1,0.4-1.7,1.7-1.7,3c0,0.6,0.2,1.3,0.6,1.8c0.8,0.9,2,1.4,3.8,1.4c2.4,0,5.4-2,5.4-4.7c0-1-0.4-2.1-1.4-3.3
				c-1.6-1.8-4-3.1-5.9-2.8c-1.3,0.1-2.6,0.6-3.6,1c-0.5,0.2-1.1,0.5-1.8,0.9l-1.7,1.2c-0.7,0.4-2.8,2.3-3.2,2.7
				c-0.3,0.2-0.8,0.8-1.7,1.6c-0.8,0.8-1.3,1.3-1.5,1.4c-1.3,1.2-2.3,2.1-3.3,2.8c1.2-0.3,2.5-0.5,3.7-0.5c2.6,0,5,0.8,6.4,2.2
				c1.1,1.2,1.7,2.6,1.7,4.4c0,1.8-1.4,3.6-3.6,4.7c-1.1,0.5-2.1,0.8-3,0.8c-2.4,0-3.7-1.8-3.7-3.7c0-0.4,0-0.8,0.1-1.2
				c0.3-1.1,0.9-1.6,1.7-1.9c0.1-0.2,0.2-0.3,0.3-0.5c0.3-0.3,0.8-0.4,1.2-0.4c0.9,0,1.6,0.7,1.6,1.6s-0.7,1.6-1.6,1.6
				c-0.9,0-1.6-0.8-1.6-1.5c-0.6,0.2-1.1,1.2-1.1,2.3c0,0.8,0.3,1.6,0.9,2.1c0.6,0.6,1.3,0.8,2.1,0.8c0.8,0,1.7-0.2,2.8-0.7
				c1.8-0.8,3.2-2.3,3.2-3.7c0.1-4.2-2.8-6.4-7.3-6.4c-2.6,0-5.3,0.9-7.2,2.2c-0.1,0.1-0.4,0.2-0.5,0.2c-1.5,0.6-2.9,0.9-4.1,0.9
				c-2.7,0-5-1.2-6.9-2.5c-1.4-1-2.4-2.1-3-3.3c-2.6,2.6-6.7,4.2-10.7,4.2c-1.6,0-3.1-0.3-4.5-0.8c-0.1,0-0.2,0-0.3-0.1l-0.4-0.2
				l-0.1-0.1h-0.3c-0.3-0.3-0.7-0.5-0.9-0.8c-1.6-0.8-3.1-1.1-4.4-1.1c-1.7,0-3.2,0.6-4.5,1.7c-1.4,1.2-2.1,2.6-2.1,4.1
				c0,1,0.4,2,1.2,2.8c1.3,1.3,3.5,2,5.5,2c0.4,0,0.8,0,1.2-0.1c1.2-0.2,1.9-0.8,1.9-1.6c0-0.6-0.3-1.2-1-2
				c-0.2,0.1-0.3,0.1-0.6,0.1c-0.9,0-1.6-0.7-1.6-1.6c0-0.9,0.7-1.6,1.6-1.6c0.9,0,1.6,0.7,1.6,1.6c0,0.4-0.2,0.8-0.4,1.1
				c0.7,0.9,1,1.8,1,2.5c0,1.4-1.3,2.3-3.7,2.3c-2.1,0-4.5-0.8-6-2.2c-0.9-1-1.3-2.2-1.3-3.3c0-1.6,0.8-3.3,2.3-4.5
				c1.4-1.2,3.1-1.8,4.9-1.8c1,0,2.1,0.2,3.3,0.6c-0.6-0.6-1.5-1.4-2.6-2.7c-3.5-3.9-7.1-8.6-11.8-8.6c-1.2,0-2.5,0.3-4,1.1
				c-2.3,1.3-3.3,3-3.3,4.7c0,1.4,0.7,2.9,1.9,4.1c1.3,1.3,2.6,1.8,3.6,1.8c1.1,0,2-0.6,2.5-1.6c-0.4-0.1-1.1-0.6-1.1-1.5
				s0.7-1.6,1.6-1.6c0.9,0,1.6,0.7,1.6,1.6s-0.7,1.5-1.3,1.6c-0.6,1.4-1.7,2.1-3.1,2.1c-1.3,0-2.7-0.6-4.1-1.9
				c-1.4-1.3-2.2-3-2.2-4.6c0-1.9,1.1-3.8,3.6-5.2c1.3-0.7,2.6-1.1,3.9-1.1c2.5,0,5.1,1.2,7.9,3.7c0.9,0.9,2.5,2.6,4.8,5l1.6,1.7
				c-0.4-1.1-0.6-2.3-0.6-3.5c0-2.1,0.6-4.2,1.7-5.7c1-1.4,2.4-2.1,3.7-2.1c1.1,0,2.1,0.5,2.6,1.6c0.6,1.5,0.9,2.9,0.9,4
				c0,1.6-0.5,2.9-1.5,3.9c-0.7,0.7-1.4,1.1-2,1.1c-0.8,0-1.4-0.6-1.5-1.6c-0.1,0-0.1,0-0.1,0C145.5,102.7,145.1,102.5,144.8,102.3
				L144.8,102.3z M159.7,110.5l-0.3,0.8c-0.1,0.3-0.2,0.6-0.4,0.8l-0.4,0.8c-0.1,0.2-0.3,0.4-0.5,0.7c-0.3,0.2-0.4,0.4-0.5,0.6
				c-0.1,0.1-0.3,0.3-0.7,0.6c-0.3,0.2-0.5,0.5-0.6,0.6c-0.1,0.1-0.3,0.3-0.6,0.5c-0.3,0.3-0.5,0.4-0.6,0.5
				c-2.1,1.9-3.3,3.4-3.6,5.5c0.4,0.2,1,0.6,1,1.5c0,0.9-0.7,1.6-1.6,1.6s-1.6-0.7-1.6-1.6c0-0.9,0.7-1.6,1.6-1.6
				c0.3-2.4,1.5-3.9,3.8-5.9c0.1-0.1,1-1,1.2-1.1c0.2-0.1,0.9-0.8,1.1-1.1c0.1-0.1,0.2-0.3,0.5-0.5c0.3-0.3,0.4-0.5,0.5-0.7
				c0.1-0.2,0.2-0.3,0.4-0.6c0.3-0.5,0.6-1,0.7-1.6C159.1,110,159.7,110.1,159.7,110.5C159.7,110.5,159.7,110.5,159.7,110.5
				L159.7,110.5z M161.6,110.4c0,2.7-0.9,5.4-2.7,8.2c-0.1,0.1-0.2,0.4-0.5,0.8l-0.5,0.9l-0.5,0.7c-0.4,0.8-0.5,1-0.8,1.7
				c-0.1,0.3-0.2,0.6-0.3,0.8c0,0.2,0,0.3,0,0.4c0.4,0.1,1.1,0.6,1.1,1.5s-0.7,1.6-1.6,1.6c-0.9,0-1.6-0.7-1.6-1.6s0.7-1.5,1.4-1.6
				c0.1-0.3,0.1-0.4,0.2-0.7c0.1-0.8,0.2-1.1,0.7-2l0.5-0.9c0.1-0.3,1.3-2,1.3-2c1.7-2.7,2.5-5.3,2.5-7.9c0-0.3,0.1-0.3,0.3-0.3
				C161.5,110,161.6,110.1,161.6,110.4z M162.3,110.2c0,0.2-0.1,0.5-0.1,0.8c0,1.6,0.9,3.7,2.7,6.2c0.1,0.1,0.3,0.4,0.7,0.9l0.7,1.1
				l0.6,0.9c0.2,0.4,0.5,0.8,0.6,1l0.4,1c0.2,0.3,0.3,0.7,0.3,1c0,0.1,0,0.1,0,0.2c0.2,0.1,0.3,0.2,0.4,0.3c0.3,0.3,0.4,0.7,0.4,1.1
				c0,0.9-0.7,1.6-1.6,1.6c-0.9,0-1.6-0.7-1.6-1.6c0-0.9,0.7-1.6,1.6-1.6c0,0,0,0,0.1,0c-0.1-0.4-0.2-0.8-0.5-1.3l-0.4-0.8
				c-0.2-0.3-0.9-1.3-1.1-1.6c-0.2-0.3-0.9-1.5-1.2-1.8c-1.8-2.7-2.7-5-2.7-6.8c0-0.3,0-0.5,0.1-0.8
				C161.7,109.6,162.3,109.8,162.3,110.2C162.3,110.2,162.3,110.2,162.3,110.2L162.3,110.2z M161.7,103.9c0.8-1.1,1.3-2.3,1.3-3.4
				c0-0.8-0.2-1.5-0.6-2.3c-0.2,0.3-0.3,0.7-0.3,1.1c-0.3,1.1-0.5,2.1-0.5,3.1C161.6,103,161.7,103.5,161.7,103.9z M165.3,111.1
				c0.1,1.9,1.4,2.8,4.7,4.8c1.8,1.1,2.8,1.8,3.5,3.3c0.3,0.6,0.4,1.2,0.4,1.9c0,0.1,0,0.3,0,0.4c0.7,0.1,1.3,0.7,1.3,1.6
				c0,0.9-0.7,1.6-1.6,1.6c-0.9,0-1.6-0.7-1.6-1.6c0-0.9,0.7-1.4,1.1-1.5c0-0.2,0.1-0.5,0.1-0.7c0-1.7-1.2-2.9-3.6-4.4
				c-3.3-2.1-4.8-3.1-5-5.4c0-0.2,0.1-0.3,0.3-0.3C165.2,110.8,165.3,110.9,165.3,111.1L165.3,111.1z"/>
		</g>
	</g>
	<g>
		<g>
			<path fill="#FFFFFF" d="M170,70.2V70c0.1-0.5,0.4-1.1,0.8-2.2c0.8-1.8,1-2.7,1-3.7c-1,0-1.8-0.8-1.8-1.8s0.8-1.8,1.8-1.8
				s1.8,0.8,1.8,1.8c0,0.5-0.2,1-0.5,1.3c-0.2,0.1-0.4,0.2-0.5,0.3c-0.1,1.2-0.5,2.3-1.1,4.2l-0.5,1.1c1.7-1.6,3.1-3.1,4.4-4.8
				c2.7-3.5,4.1-6.6,4.1-9.4c0-1.1-0.2-2.2-0.7-3.2c-1.1-2.7-3.9-4.1-6.7-4.1c-4,0-6.9,2.4-6.4,6.6c0.2,1.6,1.5,2.3,2.9,2.3
				c0.9,0,1.9-0.3,2.3-0.8c-0.1-0.1-0.3-0.2-0.4-0.4c-0.4-0.3-0.6-0.8-0.6-1.2c0-1,0.8-1.8,1.8-1.8s1.8,0.8,1.8,1.8
				c0,1-0.8,1.8-1.8,1.8c-0.3,0.4-0.6,0.7-1,0.9c-0.7,0.4-1.5,0.5-2.2,0.5c-0.9,0-1.7-0.3-2.5-0.8c-0.8-0.6-1.2-1.7-1.2-3
				c0-4.1,3.1-6.5,7.2-6.5c3.1,0,6.2,1.5,7.5,4.5c0.6,1.2,0.8,2.5,0.8,3.7c0,6.4-6.5,12.9-10.9,16.5c0.8-0.1,2.9-0.2,6.3-0.2
				c2.6,0.1,4.5-0.3,5.9-1.1c-0.1-0.3-0.2-0.5-0.2-0.8c0-1,0.8-1.8,1.8-1.8s1.8,0.8,1.8,1.8s-0.8,1.8-1.8,1.8
				c-0.5,0-0.9-0.2-1.2-0.5c-1.4,1-3.5,1.4-6.3,1.3h-3.3c-0.9,0-2.1,0-3.1,0.2c-0.5,0.1-1,0.3-1.4,0.4c-1.8,1.4-2.6,1.8-4.2,2.6v0.1
				c1.4,0.7,2.3,1.2,2.7,1.9c0.1,0.3,0.1,0.6,0.1,0.9V79c0,0.3-0.1,0.4-0.4,0.4s-0.4-0.1-0.4-0.4v-0.8c0-0.2,0-0.4-0.1-0.5
				c-0.1-0.5-1-1-2.2-1.6l-0.7-0.4l-0.4,0.2c-1.3,0.6-2.2,1-2.5,1.5c-0.1,0.1-0.1,0.3,0,0.5v0.8c0,0.3-0.1,0.4-0.4,0.4
				c-0.3,0-0.4-0.1-0.4-0.4V78c-0.1-0.3,0-0.6,0.2-0.9c0.3-0.6,1.1-1.1,2.6-1.7l-0.1-0.1c-1.2-0.5-1.8-1-2.9-1.7
				c-1.5-0.5-3.7-0.7-6.4-1l-3.1-0.3c-2.2-0.3-3.9-0.8-5.1-1.2c-0.9-0.3-1.4-0.7-1.9-1.1c-0.3,0.1-0.6,0.2-0.9,0.2
				c-1,0-1.8-0.8-1.8-1.8s0.8-1.8,1.8-1.8c1,0,1.8,0.8,1.8,1.8c0,0.5-0.1,0.8-0.4,1c0.4,0.4,1,0.8,1.6,1c1,0.5,2.7,0.9,4.9,1.1
				l3.1,0.3c1.3,0.1,2.2,0.2,2.5,0.3c0.9,0.1,1.6,0.2,2.3,0.3c-6.8-5.3-10.2-11.3-10.2-18.1c0-3.7,1.4-5.5,3.9-6.7
				c1.1-0.5,2.3-0.7,3.4-0.7c2.2,0,4.3,0.9,5.7,2.6c1,1.3,1.5,3,1.3,5c-0.1,1.9-1.5,3-3.3,3.1c-0.9,0-1.6-0.2-2.3-0.6
				c-0.4-0.3-0.7-0.6-1-0.9c-1,0-1.8-0.8-1.8-1.8c0-1,0.8-1.8,1.8-1.8s1.8,0.8,1.8,1.8c0,0.5-0.2,1-0.5,1.3
				c-0.2,0.1-0.4,0.2-0.6,0.3c0.5,0.5,1.4,0.8,2.3,0.8c1.3,0,2.6-0.6,2.8-2.3c0.4-4.1-2.6-6.7-6.4-6.7c-2.6,0-5,1.4-6.2,4
				c-0.3,0.5-0.4,1.2-0.4,2.1c0,0.9,0.1,1.9,0.3,3.2c0.7,4.4,3,8.6,7.1,12.6c-0.4-0.9-0.7-2-0.7-3.1c0-0.9,0.1-1.8,0.4-2.8
				c-0.1-0.1-0.1-0.1-0.1-0.1c-0.4-0.4-0.6-0.9-0.6-1.3c0-1,0.8-1.8,1.8-1.8c1,0,1.8,0.8,1.8,1.8s-0.8,1.8-1.8,1.8
				c-0.1,0-0.3,0-0.4,0c-0.2,0.8-0.3,1.6-0.3,2.4c0,1.5,0.4,2.8,1.1,3.9c0.1,0.1,0.1,0.3,0,0.4c0.9,0.8,1.8,1.5,2.9,2.2
				c0.1,0.1,0.2,0.1,0.3,0.1c0.1,0.1,0.1,0.2,0.2,0.3l1.1,0.8c0.2,0.1,0.6,0.3,1.1,0.6l0.7,0.3c1.2-0.5,2-0.9,2.3-1l1.8-1.2
				c0-0.2,0.1-0.3,0.2-0.4c0.2-0.1,0.4-0.1,0.5-0.2L170,70.2z M163.9,77.4c0.3,0.4,0.5,0.9,0.5,1.3c0,1-0.8,1.8-1.8,1.8
				c-1,0-1.8-0.8-1.8-1.8c0-1,0.8-1.8,1.8-1.8C163,76.9,163.5,77.1,163.9,77.4z"/>
		</g>
	</g>
	<g>
		<g>
			<path fill="#FFFFFF" d="M251,111.5c1-0.7,2.5-1.5,3.4-1.9c-0.1-0.1-0.1-0.1-0.2-0.2c-0.1-0.5-0.1-1,0-1.5
				c0.4-1.1,1.5-1.5,2.5-1.1c1.1,0.4,1.5,1.5,1.1,2.5c-0.4,1.1-1.5,1.5-2.5,1.1c-0.1,0-0.3-0.1-0.4-0.2l-0.8,0.3
				c-0.6,0.2-1.2,0.5-1.8,1c-0.7,0.4-1.1,0.7-1.4,0.9c-0.3,0.2-0.8,0.6-1.6,1.2c-0.8,0.7-1.4,1-1.6,1.2c3,0,6,0.2,9,0.6
				c0-0.2,0.1-0.4,0.2-0.5c1.4-1,3.4-2,6-3.1l4.7-2c0-0.3,0-0.6,0.1-0.9c0.4-1.1,1.5-1.5,2.5-1.1c1.1,0.4,1.5,1.5,1.1,2.5
				c-0.4,1.1-1.5,1.5-2.5,1.1c-0.5-0.2-0.8-0.4-1-0.8l-4.5,2c-2.5,1.1-4.4,2-5.8,2.9c4.7,0.6,9.3,1.6,13.8,2.9
				c0.1-0.1,0.4-0.1,0.4,0.1l0.1,0.1c1,0.3,2,0.6,2.9,0.9c0-0.1,0-0.1,0.1-0.1l1.3,0.1c0.8-0.9,1.9-1.4,2.6-1.8
				c0.7-0.4,2.4-0.7,3-0.8l1.6-0.2l0.6-0.1c0-0.3,0-0.6,0.1-0.8c0.4-1.1,1.5-1.5,2.5-1.1c1.1,0.4,1.5,1.5,1.1,2.5
				c-0.4,1.1-1.5,1.5-2.5,1.1c-0.5-0.2-0.8-0.5-1.1-1l-0.6,0.1l-1.4,0.2c-0.2,0-0.6,0.2-1.2,0.3c-1.1,0.2-1.5,0.4-2.3,0.9
				c-0.4,0.2-0.8,0.4-1.1,0.7c5.3,0.2,10.2,0.9,14.7,2.2c0-0.1,0-0.1,0-0.1c0.4-1.1,1.5-1.5,2.5-1.1c1.1,0.4,1.5,1.5,1.1,2.5
				c-0.4,1.1-1.5,1.5-2.5,1.1c-0.5-0.2-0.9-0.6-1.1-1.1c-0.1-0.1-0.1-0.4-0.1-0.5c-4.5-1.3-9.5-2.1-15-2.3c8,3,15.2,7.2,21.4,12.4
				c0-0.1,0.1-0.1,0.3-0.1c6.5,0.5,10.7,0.9,12.4,1.1c0.4-0.8,1.4-1.3,2.5-0.9c1.1,0.4,1.5,1.5,1.1,2.5c-0.4,1.1-1.5,1.5-2.5,1.1
				c-0.5-0.2-0.9-0.6-1.1-1.1c-0.1-0.3-0.1-0.5-0.1-0.8c-1.4-0.2-2.8-0.4-4.4-0.5c2.6,2,4.7,3.7,6.2,5.2c0.4-0.2,1-0.2,1.4,0
				c1.1,0.4,1.5,1.5,1.1,2.5c-0.4,1.1-1.5,1.5-2.5,1.1c-1.1-0.4-1.5-1.5-1.1-2.5c0.1-0.3,0.2-0.5,0.4-0.6c-1.6-1.5-3.9-3.4-6.9-5.7
				l-0.1,0l-5.6-0.4c4.4,3.8,8.2,8,11.4,12.6c0.1-0.1,0.1-0.1,0.2,0c3.8,1.8,7.4,4,10.9,6.5c0.1-0.1,0.2-0.2,0.3-0.3
				c0.5-0.1,1-0.1,1.5,0c1.1,0.4,1.5,1.5,1.1,2.5c-0.4,1.1-1.5,1.5-2.5,1.1c-1.1-0.4-1.5-1.5-1.1-2.5c0-0.1,0-0.1,0.1-0.2
				c-3.2-2.3-6.4-4.3-9.8-6c0.9,1.3,1.8,2.8,2.5,4.3c0.4-0.1,0.8,0,1.1,0.1c1.1,0.4,1.5,1.5,1.1,2.5s-1.5,1.5-2.5,1.1
				c-1.1-0.4-1.5-1.5-1.1-2.5c0.2-0.4,0.4-0.7,0.7-0.9c-2.8-5.1-6.2-9.7-10.4-14l0,0.1c-1.9,4.2-1.9,8.6,0,13.5c0.3,0,0.6,0,0.9,0.1
				c1.1,0.4,1.5,1.5,1.1,2.5c-0.4,1-1.5,1.5-2.5,1.1c-1.1-0.4-1.5-1.5-1.1-2.5c0.2-0.5,0.4-0.8,0.8-1c-1.1-3-1.6-5.7-1.5-8.3
				c-0.5,0.8-1,1.6-1.3,2.5c-2.2,5.5-0.1,11.6,3.9,17.3c0.4-0.1,0.7-0.1,1.1,0.1c1.1,0.4,1.5,1.5,1.1,2.5c-0.4,1.1-1.5,1.5-2.5,1.1
				c-1.1-0.4-1.5-1.5-1.1-2.5c0.2-0.5,0.4-0.7,0.8-0.9c-4.2-5.7-6.3-12.1-4-17.8c0.5-1.3,1.3-2.6,2.2-3.8c0.2-1.4,0.6-2.7,1.3-4.1
				c0-0.1,0.2-0.2,0.3-0.3c-6.9-6.9-15.1-12.1-24.6-15.9c-1.3-0.5-2.7-1-4.1-1.5l1.8,1.4c0.7,0.6,1.4,1,1.6,1.2c2,1.6,3.6,3,4.7,4.4
				c0.3,0,0.5,0.1,0.8,0.2c1.1,0.4,1.5,1.5,1.1,2.5c-0.4,1.1-1.5,1.5-2.5,1.1c-1.1-0.4-1.5-1.5-1.1-2.5c0.2-0.5,0.5-0.8,1-1.1
				c-1.1-1.2-2.6-2.4-4.4-3.9c-3.1-2.3-4.8-3.6-5.1-3.9c-6.8-2.1-13.6-3.3-20.7-3.5c0.7,0.3,2.1,0.8,4.3,1.7
				c1.7,0.5,3.1,1.1,4.1,1.5c0.5-0.4,1.1-0.9,2.2-0.5c1.1,0.4,1.5,1.5,1.1,2.5c-0.4,1.1-1.5,1.5-2.5,1.1c-1.1-0.4-1.5-1.6-1.1-2.4
				c-1.1-0.5-2.7-1.1-4.6-1.7c-2.5-1-4.4-1.7-5.6-2.2l-0.1,0c-6-0.1-11.8,0.5-17.5,1.8c2.8,0.3,7,1.4,12.2,3
				c0.4-0.8,1.4-1.3,2.5-0.9c1.1,0.4,1.5,1.5,1.1,2.5c-0.4,1.1-1.5,1.5-2.5,1.1c-0.5-0.2-0.9-0.6-1.1-1.1c-0.1-0.3-0.1-0.5-0.1-0.8
				c-5.7-1.8-10.1-2.9-13.2-3.1l-0.2-0.1c-0.1,0.1-0.4,0.1-0.4-0.1c-0.1,0-0.1,0-0.1-0.1l-2.3,0.6c-0.5,0.2-0.7-0.6-0.2-0.7l2.9-0.9
				c0.5-0.7,1-1.4,1.3-2.1c0.3-0.7,0.4-1.4,0.5-2.1c-0.7-0.6-1.1-1.3-0.7-2.4c0.4-1,1.5-1.5,2.5-1.1c1.1,0.4,1.5,1.5,1.1,2.5
				c-0.4,1.1-1.3,1.3-2.1,1.3c-0.1,0.7-0.3,1.5-0.5,2.2c-0.2,0.5-0.5,1-0.8,1.5l1.4-0.3c2.1-1.7,4.7-3.1,7.7-4.5
				c0-0.3,0-0.6,0.1-0.9c0.4-1.1,1.5-1.5,2.5-1.1c1.1,0.4,1.5,1.5,1.1,2.5c-0.4,1.1-1.5,1.5-2.5,1.1c-0.5-0.2-0.8-0.4-1-0.8
				c-2.4,1-4.5,2.2-6.2,3.4c4.2-0.8,8.4-1.2,12.8-1.3c0-0.1,0-0.1,0.2-0.2C247.4,114.2,250,112.2,251,111.5z"/>
		</g>
	</g>
	<g>
		<g>
			<path fill="#FFFFFF" d="M78.2,114.8c0.1,0.1,0.1,0.1,0.2,0.2c4.3,0.1,8.6,0.5,12.8,1.3c-1.7-1.2-3.8-2.4-6.2-3.4
				c-0.2,0.4-0.5,0.6-1,0.8c-1.1,0.4-2.1-0.1-2.5-1.1c-0.4-1.1,0-2.1,1.1-2.5c1.1-0.4,2.1,0.1,2.5,1.1c0.1,0.3,0.1,0.6,0.1,0.9
				c3.1,1.3,5.6,2.8,7.7,4.5l1.4,0.3c-0.3-0.5-0.6-1-0.8-1.5c-0.3-0.7-0.5-1.5-0.5-2.2c-0.9,0-1.7-0.2-2.1-1.3
				c-0.4-1,0.1-2.1,1.1-2.5c1.1-0.4,2.1,0.1,2.5,1.1c0.4,1.1-0.1,1.8-0.7,2.4c0.1,0.7,0.3,1.5,0.5,2.1c0.3,0.8,0.7,1.5,1.3,2.1
				l2.9,0.9c0.6,0.1,0.4,1-0.2,0.7l-2.3-0.6c0,0.1,0,0.1-0.1,0.1c-0.1,0.1-0.3,0.1-0.4,0.1l-0.2,0.1c-3.1,0.2-7.5,1.3-13.2,3.1
				c0,0.3,0,0.6-0.1,0.8c-0.2,0.5-0.6,0.9-1.1,1.1c-1.1,0.4-2.1,0-2.5-1.1s0-2.1,1.1-2.5c1.1-0.4,2,0.1,2.5,0.9
				c5.2-1.6,9.3-2.7,12.2-3c-5.7-1.3-11.5-1.9-17.5-1.8l-0.1,0c-1.2,0.5-3.2,1.2-5.6,2.2c-1.9,0.7-3.5,1.3-4.6,1.7
				c0.3,0.9-0.1,2-1.1,2.4c-1.1,0.4-2.1,0-2.5-1.1c-0.4-1.1,0.1-2.1,1.1-2.5c1.1-0.4,1.7,0.1,2.2,0.5c1.1-0.4,2.5-1,4.1-1.5
				c2.2-0.9,3.6-1.4,4.3-1.7c-7.1,0.2-13.9,1.4-20.7,3.5c-0.3,0.2-2,1.6-5.1,3.9c-1.8,1.5-3.3,2.7-4.4,3.9c0.4,0.3,0.8,0.6,1,1.1
				c0.4,1.1-0.1,2.1-1.1,2.5c-1.1,0.4-2.1,0-2.5-1.1s0.1-2.1,1.1-2.5c0.3-0.1,0.5-0.2,0.8-0.2c1.1-1.4,2.6-2.8,4.7-4.4
				c0.2-0.2,0.9-0.6,1.6-1.2l1.8-1.4c-1.4,0.5-2.8,1-4.1,1.5c-9.5,3.7-17.7,9-24.6,15.9c0.1,0.1,0.3,0.2,0.3,0.3
				c0.7,1.4,1.1,2.8,1.3,4.1c1,1.2,1.7,2.5,2.2,3.8c2.3,5.8,0.2,12.2-4,17.8c0.4,0.2,0.6,0.4,0.8,0.9c0.4,1.1-0.1,2.1-1.1,2.5
				c-1.1,0.4-2.1-0.1-2.5-1.1c-0.4-1.1,0.1-2.1,1.1-2.5c0.4-0.2,0.7-0.2,1.1-0.1c4-5.7,6-11.8,3.9-17.3c-0.3-0.8-0.8-1.7-1.3-2.5
				c0.1,2.6-0.3,5.3-1.5,8.3c0.4,0.2,0.6,0.5,0.8,1c0.4,1-0.1,2.1-1.1,2.5c-1.1,0.4-2.1-0.1-2.5-1.1c-0.4-1.1,0-2.1,1.1-2.5
				c0.3-0.1,0.6-0.1,0.9-0.1c1.9-4.8,1.9-9.2,0-13.5l0-0.1c-4.2,4.3-7.6,9-10.4,14c0.3,0.2,0.5,0.6,0.7,0.9c0.4,1.1-0.1,2.1-1.1,2.5
				c-1.1,0.4-2.1-0.1-2.5-1.1c-0.4-1.1,0-2.1,1.1-2.5c0.3-0.1,0.7-0.2,1.1-0.1c0.7-1.5,1.6-2.9,2.5-4.3c-3.4,1.7-6.6,3.7-9.8,6
				c0,0.1,0,0.1,0.1,0.2c0.4,1.1-0.1,2.1-1.1,2.5c-1.1,0.4-2.1-0.1-2.5-1.1c-0.4-1.1,0.1-2.1,1.1-2.5c0.5-0.2,1-0.2,1.5,0
				c0.1,0.1,0.2,0.2,0.3,0.3c3.5-2.5,7.1-4.7,10.9-6.5c0.1,0,0.1,0,0.2,0c3.1-4.7,7-8.8,11.4-12.6l-5.6,0.4l-0.1,0
				c-3,2.3-5.3,4.2-6.9,5.7c0.2,0.2,0.2,0.3,0.4,0.6c0.4,1.1-0.1,2.1-1.1,2.5c-1.1,0.4-2.1,0-2.5-1.1c-0.4-1.1,0.1-2.1,1.1-2.5
				c0.5-0.2,1-0.2,1.4,0c1.5-1.5,3.6-3.2,6.2-5.2c-1.6,0.1-3.1,0.3-4.4,0.5c0,0.3,0,0.6-0.1,0.8c-0.2,0.5-0.6,0.9-1.1,1.1
				c-1.1,0.4-2.1,0-2.5-1.1c-0.4-1.1,0-2.1,1.1-2.5c1.1-0.4,2,0.1,2.5,0.9c1.7-0.2,5.8-0.6,12.4-1.1c0.1,0.1,0.2,0,0.3,0.1
				c6.2-5.2,13.4-9.4,21.4-12.4c-5.6,0.2-10.6,1-15,2.3c-0.1,0.1-0.1,0.4-0.1,0.5c-0.2,0.5-0.6,0.9-1.1,1.1
				c-1.1,0.4-2.1-0.1-2.5-1.1c-0.4-1.1,0.1-2.1,1.1-2.5c1.1-0.4,2.1,0,2.5,1.1c0,0,0,0,0,0.1c4.5-1.3,9.4-2,14.7-2.2
				c-0.3-0.2-0.7-0.5-1.1-0.7c-0.8-0.4-1.2-0.6-2.3-0.9c-0.6-0.1-1-0.3-1.2-0.3l-1.4-0.2l-0.6-0.1c-0.3,0.4-0.6,0.8-1.1,1
				c-1.1,0.4-2.1,0-2.5-1.1s0.1-2.1,1.1-2.5c1.1-0.4,2.1,0,2.5,1.1c0.1,0.3,0.1,0.5,0.1,0.8l0.6,0.1l1.6,0.2c0.6,0.1,2.3,0.4,3,0.8
				c0.7,0.4,1.8,0.8,2.6,1.8l1.3-0.1c0.1,0,0.1,0,0.1,0.1c1-0.4,1.9-0.7,2.9-0.9l0.1-0.1c0.1-0.1,0.3-0.1,0.4-0.1
				c4.5-1.3,9.1-2.2,13.8-2.9c-1.3-0.9-3.3-1.8-5.8-2.9l-4.5-2c-0.2,0.4-0.5,0.6-1,0.8c-1.1,0.4-2.1,0-2.5-1.1
				c-0.4-1.1,0-2.1,1.1-2.5c1.1-0.4,2.1,0.1,2.5,1.1c0.1,0.3,0.1,0.6,0.1,0.9l4.7,2c2.5,1.1,4.6,2.1,6,3.1c0.1,0.1,0.2,0.2,0.2,0.5
				c3-0.4,6-0.6,9-0.6c-0.2-0.2-0.7-0.5-1.6-1.2c-0.8-0.7-1.3-1-1.6-1.2c-0.3-0.2-0.7-0.5-1.4-0.9c-0.6-0.5-1.2-0.8-1.8-1l-0.8-0.3
				c-0.1,0-0.3,0.1-0.4,0.2c-1.1,0.4-2.1-0.1-2.5-1.1c-0.4-1.1,0.1-2.1,1.1-2.5c1.1-0.4,2.1,0,2.5,1.1c0.2,0.5,0.2,1,0,1.5
				c-0.1,0-0.1,0-0.2,0.2c0.9,0.4,2.3,1.2,3.4,1.9C75,112.2,77.5,114.2,78.2,114.8z"/>
		</g>
	</g>
	<g>
		<g>
			<path fill="#FFFFFF" d="M37.8,37.1c0.4,0,0.6,0.2,0.6,0.6c0,0.4-0.2,0.6-0.6,0.6c-0.2,0-0.4,0-0.6,0c-0.3,0-0.6,0-0.9,0
				c-0.2,0.1-0.4,0.1-0.6,0.1l-1,0.1c-0.1,0-0.2,0-0.3,0s-0.3,0-0.4,0c-0.3,0-0.5,0-0.7,0.1c-0.4,0-0.7,0-1,0c-0.3,0-0.5,0-0.8,0
				c-0.6,0-1.1,0-1.6-0.1c0,2.3,0,5.8-0.1,10.7c0,0.7,0,1.4,0,2c0,0.6,0,1.2,0,1.7c0,1.9,0,3.7,0,5.2c0,1,0,2,0,2.8
				c0.7,0,1.6,0,2.6,0l3.4-0.1c0.4,0,0.6,0.2,0.6,0.6c0,0.4-0.2,0.6-0.6,0.6h-1.1c-0.4,0-0.7,0-1.2,0c-0.5,0.1-0.9,0.1-1.1,0.1
				c-1,0-1.8,0-2.6,0c0.1,2.5,0.1,4.8,0.2,7c0,0.1,0,0.2,0,0.4c0,0.2,0,0.6,0,1c0.1,1.9,0.4,5.2,0.4,6.9c0,2.2-0.1,5.7-0.8,8
				c-0.2,0.8-1.5,0.6-1.3-0.3l0,0c0.6-2,0.8-5.5,0.8-7.7c-0.1-1.6-0.2-4.5-0.4-6.5c0-0.1,0-0.2,0-0.3c-0.1-0.6-0.1-1.1-0.1-1.4
				c-0.1-2.3-0.1-4.7-0.2-7.3c-0.1-0.1-0.1-0.2-0.1-0.4c0-0.2,0.1-0.3,0.1-0.4c0-0.9,0-1.9,0-3c0-1.5,0-3.2,0-5.2c0-0.6,0-1.1,0-1.7
				c0-0.6,0-1.3,0-2c0.1-5,0.1-8.7,0.1-10.9c-0.5-0.1-0.7-0.4-0.6-0.8l0,0c0.1-0.4,0.4-0.6,0.8-0.4c0.7,0.2,1.6,0.3,2.6,0.3
				c0.6,0,1,0,1.7-0.1c0.2-0.1,0.5-0.1,0.8-0.1l0.9-0.1h0.1c0.3,0,0.6,0,0.7,0.2c0,0.2,0,0.2,0.1,0.2v-0.4
				C36.4,37.2,37.2,37.1,37.8,37.1L37.8,37.1z"/>
			<path fill="#FFFFFF" d="M43,48.9c0.4,0,0.6,0.2,0.6,0.6v2.1c1.4-1.3,2.8-2,4.5-2c3.1,0,5.2,2.2,5.2,5.6c0,0.4-0.2,0.6-0.6,0.6
				S52,55.8,52,55.4c0-2.5-1.5-4.2-3.7-4.2c-1.7,0-3.4,0.9-4.6,2.6c0,0.8-0.1,1.9-0.1,3c0,1,0,2-0.1,3.2c0,2.2-0.1,4.6-0.1,7.5
				c0,0.5,0,1,0,1.5c-0.1,7.3-0.2,12.8-0.2,16.8c0,0.4-0.2,0.6-0.6,0.6s-0.6-0.2-0.6-0.6c0-3.9,0.1-9.4,0.2-16.6c0-0.4,0-0.9,0-1.3
				c0.1-2.7,0.1-5.1,0.1-7.1c0-1.2,0-2.3,0.1-3.2c0-1.3,0-2.4,0.1-7.8C42.4,49.2,42.6,48.9,43,48.9L43,48.9z"/>
			<path fill="#FFFFFF" d="M68.8,76.2c0,0.1,0,0.1,0,0.2c0.1,0.8,0.3,1.5,0.3,2.3c0,4.3-2.5,7.3-6,7.3c-3.6,0-6.1-3.5-6.4-8.9
				c-0.1-2.2-0.1-4.5-0.1-7.1c0-0.9,0-1.8,0-2.7c0-1,0-2,0-3c0.3-6.8,0.7-10.6,1.4-12.2c0.9-1.9,2.7-2.9,4.7-2.9
				c1.6,0,3.1,0.7,4,1.9c1.8,2.3,2.2,5.7,2.3,7.8c0.1,1.1,0.1,2,0.1,2.7c0,0.7,0,1.7,0,2.8c0,0.2,0,0.4,0,0.5c0,0.3,0,0.6,0,0.9
				c0,0.6-0.2,0.9-0.7,0.9c-0.6,0-1.9,0-3-0.1c-1.2,0-1.9,0-2.4,0c-2.1-0.1-3.7,0-5.2,0.1c0,0.2,0,0.4,0,0.6c0,0.9,0,1.8,0,2.7
				c0,2.5,0.1,4.8,0.1,7c0.2,4.9,2.6,8,5.7,7.6c2.4-0.4,4.1-2.9,4.1-6.1c0-0.6-0.1-1.3-0.2-2.2v-0.1C67.5,75.6,68.6,75.4,68.8,76.2
				L68.8,76.2z M58.3,57.2c-0.2,1.9-0.4,4.3-0.4,7.2c0,0.4,0,0.7,0,1.1c1.6-0.2,3.4-0.2,5.2-0.1c0.4,0,1.2,0,2.4,0
				c0.9,0.1,1.7,0.1,2.3,0.1c0-0.7,0-1.3,0-1.9c0-3.4-0.1-5.7-0.4-7.3c-0.8-4-2.2-5.8-4.5-5.8C59.8,50.5,58.8,51.9,58.3,57.2
				L58.3,57.2z"/>
			<path fill="#FFFFFF" d="M84.7,66.9c0,1.1,0,2.7,0.1,4.8c0,2.2,0,3.7,0,4.8c0,3.8-0.1,7-0.4,9.6c0,0.4-0.2,0.6-0.6,0.6
				s-0.6-0.2-0.6-0.7l0.1-1.8c-1.1,1.7-2.6,2.6-4.3,2.6c-2.6,0-4.8-2.3-5.6-5.8c-0.3-1.4-0.4-4.2-0.4-9.2c0-5.4,0.2-11.5,0.4-14.1
				c0.4-5.5,1.1-7.3,3.4-8.2c0.6-0.2,1.1-0.3,1.6-0.3c0.7,0,1.2,0.1,1.7,0.3c1.4,0.6,2.6,1.6,3.5,2.9c-0.1-5.6-0.2-10.5-0.6-14.6
				c0-0.4,0.2-0.6,0.6-0.6s0.6,0.2,0.6,0.6c0.3,3.7,0.5,7.1,0.6,11.8c0,2.4,0,4.2,0,5.4L84.7,66.9L84.7,66.9z M83.5,80.4v-3.9
				c0-1.1,0-2.6,0-4.7c-0.1-2.1-0.1-3.8-0.1-4.8V55.7c-0.6-2.2-2.2-4.2-4-4.8c-0.4-0.2-0.8-0.3-1.3-0.3c-1.3,0-2.2,0.8-2.9,2.5
				c-0.3,0.6-0.5,2.1-0.7,4.8c-0.1,2.5-0.4,8.6-0.4,13.9c0,4,0.1,7.4,0.4,8.9c0.6,2.9,2.3,4.8,4.3,4.8c2,0.1,3.7-1.8,4.2-4.7l0-0.1
				C83.2,80.6,83.3,80.4,83.5,80.4z"/>
			<path fill="#FFFFFF" d="M90,49.6v2.1c1.4-1.3,2.8-2,4.5-2c3.1,0,5.2,2.2,5.2,5.6c0,0.4-0.2,0.6-0.6,0.6c-0.4,0-0.6-0.2-0.6-0.6
				c0-2.5-1.5-4.2-3.7-4.2c-1.7,0-3.4,0.9-4.6,2.6c0,0.8-0.1,1.9-0.1,3c0,1,0,2-0.1,3.2c0,2.2-0.1,4.6-0.1,7.5c0,0.5,0,1,0,1.5
				c-0.1,7.3-0.2,12.8-0.2,16.8c0,0.4-0.2,0.6-0.6,0.6c-0.4,0-0.6-0.2-0.6-0.6c0-3.9,0.1-9.4,0.2-16.6c0-0.4,0-0.9,0-1.3
				c0.1-2.7,0.1-5.1,0.1-7.1c0-1.2,0-2.3,0.1-3.2c0-1.3,0-2.4,0.1-7.8c0-0.4,0.2-0.6,0.6-0.6S90,49.2,90,49.6z"/>
			<path fill="#FFFFFF" d="M105.5,81.9c0,1.7-0.1,2.7-0.4,3.6c-0.2,0.8-1.4,0.5-1.3-0.3l0-0.1c0.3-0.9,0.4-1.9,0.4-3.2
				c0-0.7,0-1.5-0.1-2.4c0-0.2,0-0.4,0-0.6c0-0.2,0-0.3,0-0.4c-0.1-0.7-0.1-1.2-0.1-1.5c0-2.9-0.1-7.3-0.2-13.2
				c-0.2-5.8-0.3-10.2-0.3-13.1c0-0.4,0.2-0.6,0.6-0.6c0.4,0,0.6,0.2,0.6,0.6c0,2.9,0.1,7.3,0.3,13.1c0.1,5.8,0.2,10.2,0.2,13.2
				c0,0.3,0,0.7,0.1,1.3v0c0,0.2,0,0.3,0,0.5c0,0.2,0,0.4,0,0.6C105.5,80.3,105.5,81.1,105.5,81.9L105.5,81.9z M105.2,45.6
				c-0.2,0.8-1.5,0.6-1.3-0.3c0.1-0.5,0.1-2,0.1-4.6c0-0.4,0.2-0.6,0.6-0.6c0.4,0,0.6,0.2,0.6,0.6C105.4,43.3,105.3,44.9,105.2,45.6
				L105.2,45.6z"/>
			<path fill="#FFFFFF" d="M116.3,76.8c1.5,2.4,3.6,6.4,4.4,8.8l0,0.1c0,0.7-1.1,0.9-1.3,0.2c-0.4-1.1-0.9-2.5-1.8-4.1l-2.2-4
				c-0.8-1.3-2.7-4.5-4.1-6.7c-0.2-0.4-0.4-0.7-0.6-1l0.1,2.4c0,0.3,0,0.7,0.1,1.3v0c0,0.2,0,0.4,0,0.6c0,0.3,0,0.6,0,0.9
				c0.1,1.9,0.2,3,0.2,4.3c0,0.6,0,1.3-0.1,2.2c-0.1,1.3-0.3,2.3-0.5,3.2c-0.2,0.8-1.5,0.6-1.3-0.3c0.4-1.3,0.6-3.4,0.6-5.9
				c-0.1-0.8-0.1-1.9-0.2-3.4c0-0.2,0-0.5,0-0.7c0-0.2,0-0.4,0-0.6c-0.1-0.7-0.1-1.3-0.1-1.6c-0.2-5.3-0.3-10.1-0.3-16.9
				c0-2.1,0-4.4,0-6.9c0.1-5.3,0.1-8.8,0.1-10.4c0-0.4,0.2-0.6,0.6-0.6c0.4,0,0.6,0.2,0.6,0.6c0,1.9,0,5,0,9.2
				c-0.1,4.1-0.1,7.8-0.1,10.9c0,2.9,0.1,5.6,0.1,8.2c1.7-2.3,3.5-5.7,6.1-11.2c0.2-0.4,0.3-0.7,0.5-1.1c0.3-0.8,0.6-1.4,0.9-1.9
				c0.3-0.6,0.5-1.1,0.6-1.4c0.3-0.6,0.3-0.7,0.3-0.7c0.4-0.6,1.4-0.3,1.3,0.5l0,0c-0.1,0.2-0.1,0.3-0.2,0.5c0,0.1-0.1,0.2-0.1,0.3
				c-0.4,0.8-1,1.9-1.6,3.3l-2.4,5c-1.2,2.6-3.3,6.3-4.9,8.2L116.3,76.8L116.3,76.8z"/>
		</g>
	</g>
	<g>
		<g>
			<path fill="#FFFFFF" d="M243.9,61.4c-1.1-0.1-2.1-0.1-3.1-0.1c-1.9,0-3.6,0.2-5.2,0.4c0,0.1,0,0.2,0,0.3c0.1,3.2,0.1,6.2,0.1,9.1
				c0,5.3-0.1,9.8-0.4,13.8c0.6,0.1,1.4,0.2,2.4,0.2c1.6,0,3.6-0.1,6-0.4c0.4,0,0.6,0.2,0.6,0.6c0,0.4-0.2,0.6-0.6,0.6
				c-2,0.2-3.9,0.4-5.9,0.4c-1.8,0-2.9-0.1-3.8-0.4c-0.6-0.2-0.6-1-0.1-1.2c0.3-3.9,0.4-8.5,0.4-13.7c0-1.7-0.1-5.7-0.1-9.1
				c-2,0.4-4,0.9-6.1,1.6l-6.4,1.8c-3.8,0.9-7.6,1.5-11,1.5c-8.3,0-13.4-3-14.3-8.6c-0.1-0.8,1.1-1.1,1.3-0.3
				c0.9,4.9,5.4,7.5,12.9,7.5c3.2,0,6.9-0.5,10.9-1.5c0.8-0.2,2.9-0.7,6.4-1.7c2.2-0.6,4.3-1.2,6.4-1.6c0-2.1-0.1-3.8-0.1-4.3
				c-0.3-10.1-0.4-16.2-0.4-18.4h0.2c-0.4,0-0.6-0.2-0.6-0.6c0-0.4,0.2-0.6,0.6-0.6c1.1,0,2.6,0,4.7-0.1c2.1,0,3.6,0,4.7,0
				c0.4,0,0.6,0.2,0.6,0.6c0,0.4-0.2,0.6-0.6,0.6c-1,0-2.4,0-4.4,0c-1.7,0.1-3,0.1-3.9,0.1c0,2.1,0.2,7.9,0.4,17.3
				c0,0.9,0.1,1.8,0.1,2.7c0,0.8,0,1.6,0.1,2.4c1.7-0.3,3.5-0.4,5.5-0.4c1,0,1.9,0,2.8,0.1C245.1,60.2,245.1,61.5,243.9,61.4
				L243.9,61.4z"/>
			<path fill="#FFFFFF" d="M251.3,36.9c0.4,0,0.6,0.2,0.6,0.6c0,5.4,0.1,13.5,0.2,24.2c0,1.5,0,3,0,4.4c0,1.3,0,2.5,0,3.8
				c0,3.9,0,7.3,0,10.2c0,2.2,0,4.2,0,5.9c0,0.4-0.2,0.6-0.6,0.6c-0.4,0-0.6-0.2-0.6-0.6c0-1.7,0-3.7,0-5.9c0-2.9,0-6.3,0-10.2
				c0-1.2,0-2.4,0-3.7c0-1.4,0-2.9,0-4.4c-0.1-10.7-0.2-18.8-0.2-24.2C250.7,37.2,250.9,36.9,251.3,36.9L251.3,36.9z"/>
			<path fill="#FFFFFF" d="M260.7,81.9c0,1.7-0.1,2.7-0.4,3.6c-0.2,0.8-1.4,0.5-1.3-0.3l0-0.1c0.3-0.9,0.4-1.9,0.4-3.2
				c0-0.7,0-1.5-0.1-2.4c0-0.2,0-0.4,0-0.6c0-0.2,0-0.3,0-0.4c-0.1-0.7-0.1-1.2-0.1-1.5c0-2.9-0.1-7.3-0.2-13.2
				c-0.2-5.8-0.3-10.2-0.3-13.1c0-0.4,0.2-0.6,0.6-0.6c0.4,0,0.6,0.2,0.6,0.6c0,2.9,0.1,7.3,0.3,13.1c0.1,5.8,0.2,10.2,0.2,13.2
				c0,0.3,0,0.7,0.1,1.3v0c0,0.2,0,0.3,0,0.5c0,0.2,0,0.4,0,0.6C260.7,80.3,260.7,81.1,260.7,81.9L260.7,81.9z M260.4,45.6
				c-0.2,0.8-1.5,0.6-1.3-0.3c0.1-0.5,0.1-2,0.1-4.6c0-0.4,0.2-0.6,0.6-0.6c0.4,0,0.6,0.2,0.6,0.6C260.5,43.3,260.5,44.9,260.4,45.6
				L260.4,45.6z"/>
			<path fill="#FFFFFF" d="M278.3,63.7c0.2,4.8,0.3,12,0.3,21.5c0,0.4-0.2,0.6-0.6,0.6c-0.4,0-0.6-0.2-0.6-0.6
				c0-9.6-0.1-16.7-0.3-21.5c-0.1-1.2-0.1-2.3-0.1-3.1c0.1-1.8,0.1-4.3-0.3-6c-0.3-2-1.7-3.2-3.7-3.2c-1.9,0-3.6,1.2-4.2,2.8
				l0.1,8.3c0,1.1,0,2.2,0.1,3.1c0.1,0.9,0.1,1.5,0.1,2.1c0,1.2,0,2.3,0,3.4c0,5.6-0.1,10.5-0.5,14.4c0,0.4-0.2,0.6-0.6,0.6
				c-0.4,0-0.6-0.2-0.6-0.7c0.4-3.9,0.5-8.8,0.5-14.4c0-1.1,0-2.2,0-3.3c-0.1-1.8-0.4-13.2-0.4-17.8c0-0.4,0.2-0.6,0.6-0.6
				c0.4,0,0.6,0.2,0.6,0.6v2c1-1.2,2.4-1.9,4-1.9c1.2,0,2.5,0.4,3.5,1.2c1.8,1.5,2.1,4.1,2.1,6.4c0.1,0.6,0.1,1.1,0.1,1.7
				c0,0.5,0,0.9-0.1,1.5C278.2,61.5,278.2,62.5,278.3,63.7L278.3,63.7z"/>
		</g>
	</g>
</g>
</svg>
